<svg xmlns="http://www.w3.org/2000/svg" xmlns:xlink="http://www.w3.org/1999/xlink" width="192" zoomAndPan="magnify" viewBox="0 0 144 143.999998" height="192" preserveAspectRatio="xMidYMid meet" version="1.0"><defs><filter x="0%" y="0%" width="100%" height="100%" id="39d35e898c"><feColorMatrix values="0 0 0 0 1 0 0 0 0 1 0 0 0 0 1 0 0 0 1 0" color-interpolation-filters="sRGB"/></filter><clipPath id="01db6a5557"><path d="M 3.21875 20 L 125 20 L 125 141.558594 L 3.21875 141.558594 Z M 3.21875 20 " clip-rule="nonzero"/></clipPath><mask id="1ee55f61e4"><g filter="url(#39d35e898c)"><rect x="-14.4" width="172.8" fill="#000000" y="-14.4" height="172.799997" fill-opacity="0.2"/></g></mask><clipPath id="e624c73ad0"><path d="M 0.21875 0.398438 L 121 0.398438 L 121 121 L 0.21875 121 Z M 0.21875 0.398438 " clip-rule="nonzero"/></clipPath><clipPath id="94a50fd74e"><rect x="0" width="122" y="0" height="122"/></clipPath><clipPath id="a693f0d9e5"><path d="M 80 127 L 95 127 L 95 141.558594 L 80 141.558594 Z M 80 127 " clip-rule="nonzero"/></clipPath><clipPath id="cdb4638a83"><path d="M 126 127 L 140.46875 127 L 140.46875 141 L 126 141 Z M 126 127 " clip-rule="nonzero"/></clipPath><clipPath id="d4c279d778"><path d="M 126 127 L 140.46875 127 L 140.46875 141.558594 L 126 141.558594 Z M 126 127 " clip-rule="nonzero"/></clipPath><clipPath id="77d40bcef9"><path d="M 22 67 L 43 67 L 43 141.558594 L 22 141.558594 Z M 22 67 " clip-rule="nonzero"/></clipPath><clipPath id="8da64d1ebd"><path d="M 34 67 L 56 67 L 56 141.558594 L 34 141.558594 Z M 34 67 " clip-rule="nonzero"/></clipPath><clipPath id="fcfd352797"><path d="M 20 132 L 37 132 L 37 141.558594 L 20 141.558594 Z M 20 132 " clip-rule="nonzero"/></clipPath><clipPath id="38ce83e8a7"><path d="M 43 132 L 60 132 L 60 141.558594 L 43 141.558594 Z M 43 132 " clip-rule="nonzero"/></clipPath><clipPath id="e70908a318"><path d="M 27 5.808594 L 54 5.808594 L 54 21 L 27 21 Z M 27 5.808594 " clip-rule="nonzero"/></clipPath></defs><rect x="-14.4" width="172.8" fill="#ffffff" y="-14.4" height="172.799997" fill-opacity="1"/><rect x="-14.4" width="172.8" fill="#ffffff" y="-14.4" height="172.799997" fill-opacity="1"/><g clip-path="url(#01db6a5557)"><g mask="url(#1ee55f61e4)"><g transform="matrix(1, 0, 0, 1, 3, 20)"><g clip-path="url(#94a50fd74e)"><g clip-path="url(#e624c73ad0)"><path fill="#000000" d="M 60.449219 0.625 C 62.421875 0.625 64.386719 0.71875 66.347656 0.914062 C 68.308594 1.105469 70.257812 1.394531 72.191406 1.78125 C 74.125 2.164062 76.03125 2.644531 77.917969 3.214844 C 79.804688 3.789062 81.660156 4.449219 83.480469 5.203125 C 85.300781 5.960938 87.078125 6.800781 88.816406 7.730469 C 90.554688 8.660156 92.246094 9.671875 93.882812 10.765625 C 95.523438 11.859375 97.101562 13.035156 98.628906 14.285156 C 100.152344 15.535156 101.609375 16.855469 103.003906 18.25 C 104.394531 19.644531 105.71875 21.101562 106.96875 22.625 C 108.21875 24.148438 109.390625 25.730469 110.488281 27.367188 C 111.582031 29.007812 112.59375 30.695312 113.523438 32.433594 C 114.453125 34.171875 115.292969 35.953125 116.046875 37.773438 C 116.800781 39.59375 117.464844 41.449219 118.039062 43.332031 C 118.609375 45.21875 119.085938 47.128906 119.472656 49.0625 C 119.855469 50.996094 120.144531 52.941406 120.339844 54.902344 C 120.53125 56.867188 120.628906 58.832031 120.628906 60.800781 C 120.628906 62.773438 120.53125 64.738281 120.339844 66.699219 C 120.144531 68.664062 119.855469 70.609375 119.472656 72.542969 C 119.085938 74.476562 118.609375 76.386719 118.039062 78.273438 C 117.464844 80.15625 116.800781 82.011719 116.046875 83.832031 C 115.292969 85.652344 114.453125 87.433594 113.523438 89.171875 C 112.59375 90.910156 111.582031 92.597656 110.488281 94.234375 C 109.390625 95.875 108.21875 97.457031 106.96875 98.980469 C 105.71875 100.503906 104.394531 101.960938 103.003906 103.355469 C 101.609375 104.75 100.152344 106.070312 98.628906 107.320312 C 97.101562 108.570312 95.523438 109.746094 93.882812 110.839844 C 92.246094 111.933594 90.554688 112.945312 88.816406 113.875 C 87.078125 114.804688 85.300781 115.644531 83.480469 116.398438 C 81.660156 117.15625 79.804688 117.816406 77.917969 118.390625 C 76.03125 118.960938 74.125 119.441406 72.191406 119.824219 C 70.257812 120.210938 68.308594 120.5 66.347656 120.691406 C 64.386719 120.882812 62.421875 120.980469 60.449219 120.980469 C 58.480469 120.980469 56.511719 120.882812 54.550781 120.691406 C 52.589844 120.5 50.644531 120.210938 48.710938 119.824219 C 46.777344 119.441406 44.867188 118.960938 42.980469 118.390625 C 41.09375 117.816406 39.242188 117.15625 37.421875 116.398438 C 35.601562 115.644531 33.820312 114.804688 32.082031 113.875 C 30.34375 112.945312 28.65625 111.933594 27.015625 110.839844 C 25.378906 109.746094 23.796875 108.570312 22.273438 107.320312 C 20.75 106.070312 19.289062 104.75 17.898438 103.355469 C 16.503906 101.960938 15.183594 100.503906 13.929688 98.980469 C 12.679688 97.457031 11.507812 95.875 10.414062 94.234375 C 9.320312 92.597656 8.304688 90.910156 7.378906 89.171875 C 6.449219 87.433594 5.605469 85.652344 4.851562 83.832031 C 4.097656 82.011719 3.433594 80.15625 2.863281 78.273438 C 2.289062 76.386719 1.8125 74.476562 1.429688 72.542969 C 1.042969 70.609375 0.753906 68.664062 0.5625 66.699219 C 0.367188 64.738281 0.269531 62.773438 0.269531 60.800781 C 0.269531 58.832031 0.367188 56.867188 0.5625 54.902344 C 0.753906 52.941406 1.042969 50.996094 1.429688 49.0625 C 1.8125 47.128906 2.289062 45.21875 2.863281 43.332031 C 3.433594 41.449219 4.097656 39.59375 4.851562 37.773438 C 5.605469 35.953125 6.449219 34.171875 7.378906 32.433594 C 8.304688 30.695312 9.320312 29.007812 10.414062 27.367188 C 11.507812 25.730469 12.679688 24.148438 13.929688 22.625 C 15.183594 21.101562 16.503906 19.644531 17.898438 18.25 C 19.289062 16.855469 20.75 15.535156 22.273438 14.285156 C 23.796875 13.035156 25.378906 11.859375 27.015625 10.765625 C 28.65625 9.671875 30.34375 8.660156 32.082031 7.730469 C 33.820312 6.800781 35.601562 5.960938 37.421875 5.203125 C 39.242188 4.449219 41.09375 3.789062 42.980469 3.214844 C 44.867188 2.644531 46.777344 2.164062 48.710938 1.78125 C 50.644531 1.394531 52.589844 1.105469 54.550781 0.914062 C 56.511719 0.71875 58.480469 0.625 60.449219 0.625 Z M 60.449219 0.625 " fill-opacity="1" fill-rule="nonzero"/></g></g></g></g></g><path fill="#545454" d="M 137.59375 131.605469 L 83.445312 131.605469 C 83.152344 131.605469 82.933594 131.480469 82.789062 131.222656 C 82.644531 130.964844 82.652344 130.710938 82.804688 130.460938 L 92.265625 115.15625 L 83.171875 64.082031 L 71.261719 64.074219 C 71.054688 64.074219 70.875 64 70.730469 63.855469 C 70.582031 63.707031 70.507812 63.53125 70.507812 63.324219 C 70.507812 63.117188 70.582031 62.9375 70.730469 62.792969 C 70.875 62.644531 71.054688 62.570312 71.261719 62.570312 L 83.800781 62.578125 C 83.984375 62.578125 84.144531 62.636719 84.285156 62.753906 C 84.425781 62.871094 84.511719 63.019531 84.542969 63.199219 L 93.792969 115.175781 C 93.828125 115.367188 93.796875 115.542969 93.695312 115.703125 L 84.796875 130.101562 L 137.59375 130.101562 C 137.800781 130.101562 137.976562 130.175781 138.125 130.324219 C 138.273438 130.46875 138.34375 130.648438 138.34375 130.855469 C 138.34375 131.0625 138.273438 131.238281 138.125 131.386719 C 137.976562 131.535156 137.800781 131.605469 137.59375 131.605469 Z M 137.59375 131.605469 " fill-opacity="1" fill-rule="nonzero"/><path fill="#545454" d="M 92.886719 115.699219 C 92.703125 115.699219 92.539062 115.640625 92.398438 115.519531 C 92.257812 115.398438 92.175781 115.246094 92.144531 115.066406 C 91.402344 110.367188 90.53125 105.582031 89.683594 100.957031 C 88.839844 96.328125 87.964844 91.539062 87.21875 86.824219 C 87.203125 86.714844 87.210938 86.609375 87.238281 86.503906 C 87.269531 86.398438 87.320312 86.300781 87.390625 86.21875 C 87.460938 86.132812 87.546875 86.070312 87.648438 86.023438 C 87.75 85.976562 87.851562 85.953125 87.964844 85.953125 L 137.765625 85.953125 C 137.882812 85.953125 137.996094 85.980469 138.105469 86.035156 C 138.210938 86.089844 138.300781 86.164062 138.371094 86.261719 C 138.441406 86.359375 138.488281 86.464844 138.507812 86.585938 C 138.527344 86.703125 138.519531 86.820312 138.480469 86.933594 L 129.546875 115.171875 C 129.496094 115.328125 129.40625 115.457031 129.273438 115.550781 C 129.140625 115.648438 128.992188 115.699219 128.828125 115.699219 Z M 88.84375 87.460938 C 89.554688 91.875 90.375 96.351562 91.164062 100.6875 C 91.972656 105.113281 92.808594 109.683594 93.53125 114.195312 L 128.277344 114.195312 L 136.738281 87.460938 Z M 88.84375 87.460938 " fill-opacity="1" fill-rule="nonzero"/><path fill="#ffffff" d="M 94.066406 134.269531 C 94.066406 134.710938 94.023438 135.148438 93.9375 135.578125 C 93.851562 136.011719 93.726562 136.429688 93.554688 136.839844 C 93.386719 137.246094 93.179688 137.632812 92.9375 138 C 92.691406 138.363281 92.414062 138.703125 92.101562 139.015625 C 91.789062 139.328125 91.449219 139.605469 91.085938 139.851562 C 90.71875 140.09375 90.332031 140.300781 89.925781 140.46875 C 89.515625 140.640625 89.097656 140.765625 88.664062 140.851562 C 88.234375 140.9375 87.796875 140.980469 87.355469 140.980469 C 86.914062 140.980469 86.480469 140.9375 86.046875 140.851562 C 85.613281 140.765625 85.195312 140.640625 84.789062 140.46875 C 84.378906 140.300781 83.992188 140.09375 83.625 139.851562 C 83.261719 139.605469 82.921875 139.328125 82.609375 139.015625 C 82.296875 138.703125 82.019531 138.363281 81.773438 138 C 81.53125 137.632812 81.324219 137.246094 81.15625 136.839844 C 80.984375 136.429688 80.859375 136.011719 80.773438 135.578125 C 80.6875 135.148438 80.644531 134.710938 80.644531 134.269531 C 80.644531 133.828125 80.6875 133.390625 80.773438 132.960938 C 80.859375 132.527344 80.984375 132.109375 81.15625 131.699219 C 81.324219 131.292969 81.53125 130.90625 81.773438 130.539062 C 82.019531 130.175781 82.296875 129.835938 82.609375 129.523438 C 82.921875 129.210938 83.261719 128.933594 83.625 128.6875 C 83.992188 128.445312 84.378906 128.238281 84.789062 128.070312 C 85.195312 127.898438 85.613281 127.773438 86.046875 127.6875 C 86.480469 127.601562 86.914062 127.558594 87.355469 127.558594 C 87.796875 127.558594 88.234375 127.601562 88.664062 127.6875 C 89.097656 127.773438 89.515625 127.898438 89.925781 128.070312 C 90.332031 128.238281 90.71875 128.445312 91.085938 128.6875 C 91.449219 128.933594 91.789062 129.210938 92.101562 129.523438 C 92.414062 129.835938 92.691406 130.175781 92.9375 130.539062 C 93.179688 130.90625 93.386719 131.292969 93.554688 131.699219 C 93.726562 132.109375 93.851562 132.527344 93.9375 132.960938 C 94.023438 133.390625 94.066406 133.828125 94.066406 134.269531 Z M 94.066406 134.269531 " fill-opacity="1" fill-rule="nonzero"/><g clip-path="url(#a693f0d9e5)"><path fill="#090817" d="M 87.355469 141.28125 C 86.894531 141.28125 86.4375 141.238281 85.988281 141.148438 C 85.535156 141.058594 85.097656 140.925781 84.671875 140.75 C 84.246094 140.574219 83.84375 140.355469 83.460938 140.101562 C 83.078125 139.84375 82.722656 139.554688 82.394531 139.230469 C 82.070312 138.902344 81.78125 138.550781 81.523438 138.167969 C 81.269531 137.785156 81.050781 137.378906 80.875 136.953125 C 80.699219 136.527344 80.566406 136.089844 80.476562 135.640625 C 80.386719 135.1875 80.339844 134.730469 80.339844 134.269531 C 80.339844 133.808594 80.386719 133.355469 80.476562 132.902344 C 80.566406 132.449219 80.699219 132.011719 80.875 131.585938 C 81.050781 131.160156 81.265625 130.757812 81.523438 130.375 C 81.777344 129.992188 82.070312 129.636719 82.394531 129.3125 C 82.71875 128.984375 83.074219 128.695312 83.457031 128.4375 C 83.839844 128.183594 84.246094 127.96875 84.667969 127.789062 C 85.09375 127.613281 85.535156 127.480469 85.984375 127.390625 C 86.4375 127.300781 86.894531 127.257812 87.351562 127.257812 C 87.8125 127.257812 88.269531 127.300781 88.722656 127.390625 C 89.171875 127.480469 89.613281 127.613281 90.035156 127.789062 C 90.460938 127.964844 90.867188 128.183594 91.25 128.4375 C 91.632812 128.695312 91.988281 128.984375 92.3125 129.3125 C 92.636719 129.636719 92.929688 129.992188 93.183594 130.375 C 93.441406 130.757812 93.65625 131.160156 93.832031 131.585938 C 94.007812 132.011719 94.140625 132.449219 94.230469 132.902344 C 94.320312 133.351562 94.367188 133.808594 94.367188 134.269531 C 94.367188 134.730469 94.320312 135.183594 94.230469 135.636719 C 94.140625 136.089844 94.007812 136.527344 93.832031 136.953125 C 93.65625 137.375 93.4375 137.78125 93.183594 138.164062 C 92.925781 138.546875 92.636719 138.898438 92.3125 139.226562 C 91.984375 139.550781 91.632812 139.839844 91.25 140.097656 C 90.867188 140.351562 90.460938 140.570312 90.039062 140.746094 C 89.613281 140.921875 89.175781 141.054688 88.722656 141.144531 C 88.273438 141.234375 87.816406 141.28125 87.355469 141.28125 Z M 87.355469 127.859375 C 86.933594 127.859375 86.519531 127.898438 86.105469 127.980469 C 85.691406 128.0625 85.292969 128.183594 84.902344 128.347656 C 84.511719 128.507812 84.144531 128.703125 83.792969 128.9375 C 83.445312 129.171875 83.121094 129.4375 82.820312 129.734375 C 82.523438 130.03125 82.257812 130.355469 82.023438 130.707031 C 81.789062 131.054688 81.59375 131.425781 81.429688 131.816406 C 81.269531 132.203125 81.148438 132.605469 81.066406 133.015625 C 80.984375 133.429688 80.941406 133.847656 80.941406 134.269531 C 80.941406 134.6875 80.984375 135.105469 81.066406 135.519531 C 81.148438 135.933594 81.269531 136.332031 81.429688 136.722656 C 81.589844 137.109375 81.789062 137.480469 82.023438 137.832031 C 82.257812 138.179688 82.523438 138.503906 82.820312 138.800781 C 83.117188 139.101562 83.441406 139.367188 83.792969 139.597656 C 84.140625 139.832031 84.511719 140.03125 84.898438 140.191406 C 85.289062 140.351562 85.691406 140.476562 86.101562 140.558594 C 86.515625 140.640625 86.933594 140.679688 87.351562 140.679688 C 87.773438 140.679688 88.191406 140.640625 88.605469 140.558594 C 89.015625 140.476562 89.417969 140.355469 89.808594 140.191406 C 90.195312 140.03125 90.566406 139.832031 90.914062 139.601562 C 91.265625 139.367188 91.589844 139.101562 91.886719 138.804688 C 92.183594 138.503906 92.449219 138.179688 92.683594 137.832031 C 92.917969 137.480469 93.117188 137.113281 93.277344 136.722656 C 93.4375 136.335938 93.558594 135.933594 93.640625 135.519531 C 93.722656 135.105469 93.765625 134.691406 93.765625 134.269531 C 93.765625 133.847656 93.722656 133.433594 93.640625 133.019531 C 93.558594 132.605469 93.4375 132.207031 93.273438 131.816406 C 93.113281 131.429688 92.917969 131.058594 92.683594 130.710938 C 92.449219 130.359375 92.183594 130.035156 91.886719 129.738281 C 91.589844 129.441406 91.265625 129.175781 90.914062 128.941406 C 90.566406 128.707031 90.195312 128.511719 89.808594 128.347656 C 89.417969 128.1875 89.019531 128.066406 88.605469 127.984375 C 88.191406 127.902344 87.777344 127.859375 87.355469 127.859375 Z M 87.355469 127.859375 " fill-opacity="1" fill-rule="nonzero"/></g><g clip-path="url(#cdb4638a83)"><path fill="#ffffff" d="M 140.386719 134.269531 C 140.386719 134.710938 140.34375 135.148438 140.257812 135.578125 C 140.171875 136.011719 140.046875 136.429688 139.875 136.839844 C 139.707031 137.246094 139.5 137.632812 139.257812 138 C 139.011719 138.363281 138.734375 138.703125 138.421875 139.015625 C 138.109375 139.328125 137.769531 139.605469 137.40625 139.851562 C 137.039062 140.09375 136.652344 140.300781 136.246094 140.46875 C 135.835938 140.640625 135.417969 140.765625 134.984375 140.851562 C 134.554688 140.9375 134.117188 140.980469 133.675781 140.980469 C 133.234375 140.980469 132.800781 140.9375 132.367188 140.851562 C 131.933594 140.765625 131.515625 140.640625 131.109375 140.46875 C 130.699219 140.300781 130.3125 140.09375 129.949219 139.851562 C 129.582031 139.605469 129.242188 139.328125 128.929688 139.015625 C 128.617188 138.703125 128.339844 138.363281 128.09375 138 C 127.851562 137.632812 127.644531 137.246094 127.476562 136.839844 C 127.308594 136.429688 127.179688 136.011719 127.09375 135.578125 C 127.007812 135.148438 126.964844 134.710938 126.964844 134.269531 C 126.964844 133.828125 127.007812 133.390625 127.09375 132.960938 C 127.179688 132.527344 127.308594 132.109375 127.476562 131.699219 C 127.644531 131.292969 127.851562 130.90625 128.09375 130.539062 C 128.339844 130.175781 128.617188 129.835938 128.929688 129.523438 C 129.242188 129.210938 129.582031 128.933594 129.949219 128.6875 C 130.3125 128.445312 130.699219 128.238281 131.109375 128.070312 C 131.515625 127.898438 131.933594 127.773438 132.367188 127.6875 C 132.800781 127.601562 133.234375 127.558594 133.675781 127.558594 C 134.117188 127.558594 134.554688 127.601562 134.984375 127.6875 C 135.417969 127.773438 135.835938 127.898438 136.246094 128.070312 C 136.652344 128.238281 137.039062 128.445312 137.40625 128.6875 C 137.769531 128.933594 138.109375 129.210938 138.421875 129.523438 C 138.734375 129.835938 139.011719 130.175781 139.257812 130.539062 C 139.5 130.90625 139.707031 131.292969 139.875 131.699219 C 140.046875 132.109375 140.171875 132.527344 140.257812 132.960938 C 140.34375 133.390625 140.386719 133.828125 140.386719 134.269531 Z M 140.386719 134.269531 " fill-opacity="1" fill-rule="nonzero"/></g><g clip-path="url(#d4c279d778)"><path fill="#090817" d="M 133.675781 141.28125 C 133.214844 141.28125 132.757812 141.238281 132.308594 141.148438 C 131.855469 141.058594 131.417969 140.925781 130.992188 140.75 C 130.566406 140.570312 130.164062 140.355469 129.78125 140.101562 C 129.398438 139.84375 129.042969 139.554688 128.71875 139.226562 C 128.390625 138.902344 128.101562 138.546875 127.84375 138.164062 C 127.589844 137.78125 127.375 137.378906 127.199219 136.953125 C 127.019531 136.527344 126.886719 136.089844 126.796875 135.636719 C 126.707031 135.1875 126.664062 134.730469 126.664062 134.269531 C 126.664062 133.808594 126.707031 133.351562 126.796875 132.902344 C 126.886719 132.449219 127.019531 132.011719 127.199219 131.585938 C 127.375 131.160156 127.589844 130.757812 127.84375 130.375 C 128.101562 129.992188 128.390625 129.636719 128.71875 129.3125 C 129.042969 128.984375 129.398438 128.695312 129.78125 128.4375 C 130.164062 128.183594 130.566406 127.96875 130.992188 127.789062 C 131.417969 127.613281 131.855469 127.480469 132.308594 127.390625 C 132.757812 127.300781 133.214844 127.257812 133.675781 127.257812 C 134.136719 127.257812 134.59375 127.300781 135.042969 127.390625 C 135.496094 127.480469 135.933594 127.613281 136.359375 127.789062 C 136.785156 127.96875 137.1875 128.183594 137.570312 128.4375 C 137.953125 128.695312 138.308594 128.984375 138.636719 129.3125 C 138.960938 129.636719 139.25 129.992188 139.507812 130.375 C 139.761719 130.757812 139.980469 131.160156 140.15625 131.585938 C 140.332031 132.011719 140.464844 132.449219 140.554688 132.902344 C 140.644531 133.351562 140.6875 133.808594 140.6875 134.269531 C 140.6875 134.730469 140.644531 135.1875 140.550781 135.636719 C 140.460938 136.089844 140.328125 136.527344 140.152344 136.953125 C 139.976562 137.378906 139.761719 137.78125 139.503906 138.164062 C 139.25 138.546875 138.957031 138.898438 138.632812 139.226562 C 138.308594 139.550781 137.953125 139.84375 137.570312 140.097656 C 137.1875 140.355469 136.785156 140.570312 136.359375 140.746094 C 135.933594 140.921875 135.496094 141.054688 135.042969 141.144531 C 134.59375 141.234375 134.136719 141.28125 133.675781 141.28125 Z M 133.675781 127.859375 C 133.253906 127.859375 132.839844 127.898438 132.425781 127.980469 C 132.011719 128.0625 131.613281 128.183594 131.222656 128.347656 C 130.832031 128.507812 130.464844 128.707031 130.113281 128.9375 C 129.765625 129.171875 129.441406 129.4375 129.144531 129.734375 C 128.84375 130.035156 128.578125 130.359375 128.347656 130.707031 C 128.113281 131.058594 127.914062 131.425781 127.753906 131.816406 C 127.59375 132.203125 127.46875 132.605469 127.386719 133.019531 C 127.304688 133.429688 127.265625 133.847656 127.265625 134.269531 C 127.265625 134.691406 127.304688 135.105469 127.386719 135.519531 C 127.46875 135.933594 127.59375 136.332031 127.753906 136.722656 C 127.914062 137.113281 128.113281 137.480469 128.34375 137.832031 C 128.578125 138.179688 128.84375 138.503906 129.144531 138.800781 C 129.441406 139.101562 129.765625 139.367188 130.113281 139.601562 C 130.464844 139.832031 130.832031 140.03125 131.222656 140.191406 C 131.613281 140.351562 132.011719 140.476562 132.425781 140.558594 C 132.839844 140.640625 133.253906 140.679688 133.675781 140.679688 C 134.097656 140.679688 134.515625 140.640625 134.925781 140.558594 C 135.339844 140.476562 135.742188 140.351562 136.128906 140.191406 C 136.519531 140.03125 136.886719 139.832031 137.238281 139.601562 C 137.585938 139.367188 137.910156 139.101562 138.210938 138.800781 C 138.507812 138.503906 138.773438 138.179688 139.007812 137.832031 C 139.242188 137.480469 139.4375 137.113281 139.597656 136.722656 C 139.761719 136.332031 139.882812 135.933594 139.964844 135.519531 C 140.046875 135.105469 140.085938 134.691406 140.085938 134.269531 C 140.085938 133.847656 140.046875 133.433594 139.960938 133.019531 C 139.878906 132.605469 139.757812 132.207031 139.597656 131.816406 C 139.4375 131.429688 139.238281 131.058594 139.003906 130.710938 C 138.769531 130.359375 138.503906 130.035156 138.207031 129.738281 C 137.910156 129.441406 137.585938 129.175781 137.234375 128.941406 C 136.886719 128.707031 136.515625 128.511719 136.128906 128.347656 C 135.738281 128.1875 135.339844 128.066406 134.925781 127.984375 C 134.511719 127.902344 134.097656 127.859375 133.675781 127.859375 Z M 133.675781 127.859375 " fill-opacity="1" fill-rule="nonzero"/></g><path fill="#545454" d="M 98.015625 115.246094 C 97.933594 115.246094 97.863281 115.21875 97.804688 115.160156 C 97.746094 115.101562 97.714844 115.027344 97.714844 114.945312 L 97.714844 86.707031 C 97.714844 86.625 97.746094 86.554688 97.804688 86.496094 C 97.863281 86.433594 97.933594 86.40625 98.015625 86.40625 C 98.097656 86.40625 98.171875 86.433594 98.230469 86.496094 C 98.289062 86.554688 98.316406 86.625 98.316406 86.707031 L 98.316406 114.945312 C 98.316406 115.027344 98.289062 115.101562 98.230469 115.160156 C 98.171875 115.21875 98.097656 115.246094 98.015625 115.246094 Z M 98.015625 115.246094 " fill-opacity="1" fill-rule="nonzero"/><path fill="#545454" d="M 105.570312 115.246094 C 105.488281 115.246094 105.417969 115.21875 105.359375 115.160156 C 105.300781 115.101562 105.269531 115.027344 105.269531 114.945312 L 105.269531 86.707031 C 105.269531 86.625 105.300781 86.554688 105.359375 86.496094 C 105.417969 86.433594 105.488281 86.40625 105.570312 86.40625 C 105.65625 86.40625 105.726562 86.433594 105.785156 86.496094 C 105.84375 86.554688 105.871094 86.625 105.871094 86.707031 L 105.871094 114.945312 C 105.871094 115.027344 105.84375 115.101562 105.785156 115.160156 C 105.726562 115.21875 105.65625 115.246094 105.570312 115.246094 Z M 105.570312 115.246094 " fill-opacity="1" fill-rule="nonzero"/><path fill="#545454" d="M 113.507812 115.246094 C 113.425781 115.246094 113.351562 115.21875 113.292969 115.160156 C 113.234375 115.101562 113.207031 115.027344 113.207031 114.945312 L 113.207031 86.707031 C 113.207031 86.625 113.234375 86.554688 113.292969 86.496094 C 113.351562 86.433594 113.425781 86.40625 113.507812 86.40625 C 113.589844 86.40625 113.660156 86.433594 113.71875 86.496094 C 113.777344 86.554688 113.808594 86.625 113.808594 86.707031 L 113.808594 114.945312 C 113.808594 115.027344 113.777344 115.101562 113.71875 115.160156 C 113.660156 115.21875 113.589844 115.246094 113.507812 115.246094 Z M 113.507812 115.246094 " fill-opacity="1" fill-rule="nonzero"/><path fill="#545454" d="M 121.441406 115.246094 C 121.359375 115.246094 121.289062 115.21875 121.230469 115.160156 C 121.171875 115.101562 121.140625 115.027344 121.140625 114.945312 L 121.140625 86.707031 C 121.140625 86.625 121.171875 86.554688 121.230469 86.496094 C 121.289062 86.433594 121.359375 86.40625 121.441406 86.40625 C 121.527344 86.40625 121.597656 86.433594 121.65625 86.496094 C 121.714844 86.554688 121.742188 86.625 121.742188 86.707031 L 121.742188 114.945312 C 121.742188 115.027344 121.714844 115.101562 121.65625 115.160156 C 121.597656 115.21875 121.527344 115.246094 121.441406 115.246094 Z M 121.441406 115.246094 " fill-opacity="1" fill-rule="nonzero"/><path fill="#545454" d="M 129.378906 114.621094 C 129.296875 114.621094 129.222656 114.589844 129.164062 114.53125 C 129.105469 114.472656 129.078125 114.402344 129.078125 114.320312 L 129.078125 86.707031 C 129.078125 86.625 129.105469 86.554688 129.164062 86.496094 C 129.222656 86.433594 129.296875 86.40625 129.378906 86.40625 C 129.460938 86.40625 129.53125 86.433594 129.589844 86.496094 C 129.648438 86.554688 129.679688 86.625 129.679688 86.707031 L 129.679688 114.320312 C 129.679688 114.402344 129.648438 114.472656 129.589844 114.53125 C 129.53125 114.589844 129.460938 114.621094 129.378906 114.621094 Z M 129.378906 114.621094 " fill-opacity="1" fill-rule="nonzero"/><path fill="#545454" d="M 134.589844 97.039062 L 90.425781 97.039062 C 90.339844 97.039062 90.269531 97.007812 90.210938 96.949219 C 90.152344 96.890625 90.125 96.820312 90.125 96.738281 C 90.125 96.65625 90.152344 96.582031 90.210938 96.523438 C 90.269531 96.464844 90.339844 96.4375 90.425781 96.4375 L 134.589844 96.4375 C 134.671875 96.4375 134.742188 96.464844 134.800781 96.523438 C 134.863281 96.582031 134.890625 96.65625 134.890625 96.738281 C 134.890625 96.820312 134.863281 96.890625 134.800781 96.949219 C 134.742188 97.007812 134.671875 97.039062 134.589844 97.039062 Z M 134.589844 97.039062 " fill-opacity="1" fill-rule="nonzero"/><path fill="#545454" d="M 131.449219 106.960938 L 92.578125 106.960938 C 92.492188 106.960938 92.421875 106.929688 92.363281 106.871094 C 92.304688 106.8125 92.273438 106.742188 92.273438 106.660156 C 92.273438 106.578125 92.304688 106.503906 92.363281 106.445312 C 92.421875 106.386719 92.492188 106.359375 92.578125 106.359375 L 131.453125 106.359375 C 131.535156 106.359375 131.605469 106.386719 131.664062 106.445312 C 131.722656 106.503906 131.753906 106.578125 131.753906 106.660156 C 131.753906 106.742188 131.722656 106.8125 131.664062 106.871094 C 131.605469 106.929688 131.535156 106.960938 131.453125 106.960938 Z M 131.449219 106.960938 " fill-opacity="1" fill-rule="nonzero"/><path fill="#ffffff" d="M 49.953125 43.882812 C 49.808594 41.847656 49.617188 38.886719 47.597656 36.515625 C 46.34375 35.113281 44.816406 34.132812 43.015625 33.578125 C 42.6875 33.46875 42.421875 33.273438 42.21875 32.988281 C 42.015625 32.707031 41.917969 32.394531 41.917969 32.046875 L 41.917969 27.199219 L 35.628906 27.199219 L 35.628906 31.996094 C 35.628906 32.328125 35.53125 32.628906 35.332031 32.894531 C 35.132812 33.164062 34.875 33.34375 34.554688 33.4375 C 32.660156 33.949219 31.027344 34.902344 29.648438 36.296875 C 27.417969 38.636719 27.082031 41.539062 26.582031 46.671875 C 25.890625 53.785156 25.15625 62.328125 24.535156 72.066406 L 53.015625 72.066406 C 51.277344 59.578125 50.421875 50.480469 49.953125 43.882812 Z M 49.953125 43.882812 " fill-opacity="1" fill-rule="nonzero"/><path fill="#090817" d="M 53.011719 72.371094 L 24.53125 72.371094 C 24.445312 72.371094 24.371094 72.339844 24.3125 72.273438 C 24.253906 72.210938 24.226562 72.136719 24.230469 72.050781 C 24.773438 63.5625 25.464844 55.011719 26.28125 46.644531 C 26.796875 41.335938 27.171875 38.460938 29.429688 36.089844 C 30.84375 34.65625 32.523438 33.679688 34.46875 33.152344 C 34.722656 33.074219 34.929688 32.929688 35.089844 32.714844 C 35.246094 32.5 35.328125 32.261719 35.328125 31.996094 L 35.328125 27.199219 C 35.328125 27.117188 35.355469 27.046875 35.414062 26.988281 C 35.472656 26.929688 35.542969 26.898438 35.628906 26.898438 L 41.914062 26.898438 C 42 26.898438 42.070312 26.929688 42.128906 26.988281 C 42.1875 27.046875 42.214844 27.117188 42.214844 27.199219 L 42.214844 32.046875 C 42.214844 32.328125 42.296875 32.585938 42.460938 32.8125 C 42.625 33.042969 42.839844 33.203125 43.109375 33.289062 C 44.960938 33.863281 46.535156 34.871094 47.824219 36.320312 C 49.890625 38.738281 50.105469 41.78125 50.25 43.796875 L 50.253906 43.863281 C 50.851562 52.308594 51.851562 61.523438 53.308594 72.027344 C 53.324219 72.117188 53.296875 72.199219 53.238281 72.265625 C 53.179688 72.335938 53.101562 72.371094 53.011719 72.371094 Z M 24.855469 71.769531 L 52.667969 71.769531 C 51.234375 61.390625 50.246094 52.273438 49.652344 43.90625 L 49.648438 43.839844 C 49.503906 41.789062 49.304688 38.980469 47.367188 36.710938 C 46.148438 35.351562 44.667969 34.402344 42.921875 33.863281 C 42.53125 33.734375 42.214844 33.503906 41.976562 33.167969 C 41.734375 32.832031 41.613281 32.460938 41.617188 32.046875 L 41.617188 27.5 L 35.929688 27.5 L 35.929688 31.996094 C 35.929688 32.394531 35.808594 32.757812 35.570312 33.078125 C 35.332031 33.398438 35.019531 33.613281 34.636719 33.730469 C 32.796875 34.226562 31.207031 35.152344 29.867188 36.503906 C 27.742188 38.734375 27.398438 41.386719 26.878906 46.703125 C 26.074219 54.960938 25.394531 63.390625 24.855469 71.769531 Z M 24.855469 71.769531 " fill-opacity="1" fill-rule="nonzero"/><g clip-path="url(#77d40bcef9)"><path fill="#545454" d="M 24.53125 141.238281 C 24.449219 141.238281 24.378906 141.210938 24.316406 141.152344 C 24.257812 141.097656 24.222656 141.027344 24.214844 140.945312 C 22.886719 124.363281 22.492188 107.753906 23.039062 91.128906 C 23.296875 83.332031 23.769531 75.449219 24.441406 67.6875 C 24.457031 67.496094 24.5625 67.398438 24.757812 67.398438 L 42.421875 67.863281 C 42.523438 67.867188 42.605469 67.90625 42.664062 67.984375 C 42.726562 68.066406 42.746094 68.152344 42.722656 68.25 C 37.382812 92.1875 35.289062 116.40625 36.441406 140.90625 C 36.445312 140.996094 36.417969 141.074219 36.355469 141.140625 C 36.292969 141.203125 36.214844 141.238281 36.125 141.238281 Z M 24.53125 141.238281 " fill-opacity="1" fill-rule="nonzero"/></g><g clip-path="url(#8da64d1ebd)"><path fill="#545454" d="M 44.320312 141.246094 C 44.128906 141.246094 44.023438 141.148438 44.003906 140.960938 C 42.671875 127.6875 41.117188 114.257812 39.378906 101.046875 C 37.949219 90.144531 36.355469 79.101562 34.644531 68.230469 C 34.632812 68.136719 34.65625 68.050781 34.714844 67.976562 C 34.777344 67.90625 34.855469 67.867188 34.953125 67.863281 L 52.617188 67.398438 C 52.8125 67.398438 52.917969 67.496094 52.933594 67.6875 C 53.222656 71.011719 53.476562 74.382812 53.6875 77.699219 C 53.691406 77.761719 54.089844 84.050781 54.335938 91.125 C 54.601562 98.675781 54.949219 116.253906 55.054688 140.953125 C 55.054688 141.042969 55.023438 141.117188 54.964844 141.179688 C 54.902344 141.242188 54.828125 141.273438 54.738281 141.273438 Z M 44.320312 141.246094 " fill-opacity="1" fill-rule="nonzero"/></g><path fill="#ffffff" d="M 20.421875 140.921875 C 20.421875 140.921875 20.933594 137.460938 24.207031 136.601562 L 24.207031 133.84375 L 35.875 133.28125 L 36.125 140.921875 Z M 20.421875 140.921875 " fill-opacity="1" fill-rule="nonzero"/><g clip-path="url(#fcfd352797)"><path fill="#090817" d="M 36.125 141.222656 L 20.417969 141.222656 C 20.328125 141.222656 20.25 141.1875 20.191406 141.117188 C 20.132812 141.046875 20.109375 140.96875 20.121094 140.875 C 20.125 140.839844 20.679688 137.371094 23.90625 136.375 L 23.90625 133.84375 C 23.90625 133.761719 23.933594 133.691406 23.988281 133.636719 C 24.042969 133.578125 24.109375 133.546875 24.191406 133.542969 L 35.859375 132.980469 C 35.941406 132.976562 36.015625 133.003906 36.078125 133.058594 C 36.136719 133.117188 36.171875 133.1875 36.171875 133.273438 L 36.425781 140.910156 C 36.425781 140.996094 36.398438 141.070312 36.339844 141.128906 C 36.28125 141.191406 36.207031 141.222656 36.125 141.222656 Z M 20.792969 140.621094 L 35.816406 140.621094 L 35.582031 133.597656 L 24.507812 134.128906 L 24.507812 136.601562 C 24.507812 136.757812 24.433594 136.855469 24.285156 136.894531 C 21.804688 137.542969 21.011719 139.753906 20.792969 140.621094 Z M 20.792969 140.621094 " fill-opacity="1" fill-rule="nonzero"/></g><path fill="#ffffff" d="M 58.808594 140.921875 C 58.5 139.304688 57.71875 137.96875 56.457031 136.910156 C 55.933594 136.488281 55.351562 136.171875 54.71875 135.953125 L 54.695312 133.28125 L 43.53125 133.28125 L 44.417969 140.277344 C 44.433594 140.511719 44.464844 140.746094 44.507812 140.980469 Z M 58.808594 140.921875 " fill-opacity="1" fill-rule="nonzero"/><g clip-path="url(#38ce83e8a7)"><path fill="#090817" d="M 44.507812 141.28125 C 44.339844 141.28125 44.242188 141.199219 44.210938 141.039062 C 44.164062 140.792969 44.132812 140.546875 44.117188 140.296875 L 43.230469 133.320312 C 43.21875 133.230469 43.246094 133.152344 43.304688 133.082031 C 43.363281 133.015625 43.441406 132.980469 43.53125 132.980469 L 54.695312 132.980469 C 54.777344 132.980469 54.847656 133.011719 54.90625 133.066406 C 54.964844 133.125 54.996094 133.195312 54.996094 133.277344 L 55.015625 135.742188 C 55.609375 135.96875 56.152344 136.277344 56.644531 136.675781 C 57.960938 137.78125 58.78125 139.175781 59.105469 140.863281 C 59.125 140.953125 59.101562 141.039062 59.042969 141.113281 C 58.984375 141.183594 58.90625 141.222656 58.8125 141.222656 Z M 43.871094 133.582031 L 44.714844 140.238281 C 44.726562 140.40625 44.742188 140.554688 44.761719 140.679688 L 58.429688 140.621094 C 58.089844 139.222656 57.371094 138.066406 56.265625 137.144531 C 55.769531 136.746094 55.222656 136.445312 54.617188 136.238281 C 54.484375 136.191406 54.417969 136.097656 54.417969 135.957031 L 54.394531 133.582031 Z M 43.871094 133.582031 " fill-opacity="1" fill-rule="nonzero"/></g><path fill="#000000" d="M 34.757812 32.972656 C 34.757812 32.972656 39.613281 34.460938 42.707031 32.972656 C 42.707031 32.972656 49.425781 34.078125 49.6875 38.980469 C 49.953125 43.882812 53.894531 72.769531 53.894531 72.769531 C 53.894531 72.769531 36.445312 75.945312 23.992188 72.769531 C 23.992188 72.769531 25.972656 44.613281 27.085938 40.011719 C 28.195312 35.414062 29.421875 33.546875 34.757812 32.972656 Z M 34.757812 32.972656 " fill-opacity="1" fill-rule="nonzero"/><path fill="#545454" d="M 71.296875 61.753906 L 81.101562 61.753906 C 81.351562 61.753906 81.558594 61.84375 81.734375 62.015625 C 81.910156 62.191406 81.996094 62.402344 81.996094 62.648438 L 81.996094 63.996094 C 81.996094 64.246094 81.910156 64.453125 81.734375 64.628906 C 81.558594 64.804688 81.351562 64.890625 81.101562 64.890625 L 71.296875 64.890625 C 71.050781 64.890625 70.839844 64.804688 70.664062 64.628906 C 70.492188 64.453125 70.402344 64.246094 70.402344 63.996094 L 70.402344 62.648438 C 70.402344 62.402344 70.492188 62.191406 70.664062 62.015625 C 70.839844 61.84375 71.050781 61.753906 71.296875 61.753906 Z M 71.296875 61.753906 " fill-opacity="1" fill-rule="nonzero"/><path fill="#ffffff" d="M 106.503906 48.855469 C 105.808594 49.1875 105.144531 49.578125 104.515625 50.027344 C 103.882812 50.476562 103.296875 50.976562 102.753906 51.523438 C 102.210938 52.074219 101.71875 52.667969 101.28125 53.304688 C 100.839844 53.9375 100.457031 54.605469 100.132812 55.308594 C 99.808594 56.007812 99.542969 56.734375 99.34375 57.480469 C 99.144531 58.226562 99.011719 58.984375 98.945312 59.753906 C 98.875 60.527344 98.875 61.296875 98.941406 62.066406 C 99.007812 62.835938 99.136719 63.59375 99.335938 64.34375 C 99.53125 65.089844 99.789062 65.816406 100.113281 66.519531 C 100.433594 67.21875 100.816406 67.890625 101.253906 68.527344 C 101.691406 69.164062 102.183594 69.757812 102.722656 70.308594 C 103.265625 70.859375 103.847656 71.363281 104.476562 71.8125 C 105.105469 72.261719 105.769531 72.65625 106.464844 72.992188 C 107.160156 73.328125 107.878906 73.601562 108.625 73.8125 C 109.367188 74.023438 110.125 74.171875 110.890625 74.25 C 111.660156 74.332031 112.429688 74.34375 113.203125 74.292969 L 118.085938 80.199219 C 118.175781 80.304688 118.289062 80.332031 118.417969 80.277344 C 118.550781 80.222656 118.609375 80.125 118.597656 79.984375 L 117.9375 73.066406 C 117.980469 73.046875 118.019531 73.03125 118.0625 73.011719 C 118.855469 72.632812 119.601562 72.179688 120.308594 71.652344 C 121.011719 71.125 121.65625 70.535156 122.246094 69.878906 C 122.832031 69.226562 123.351562 68.523438 123.796875 67.765625 C 124.246094 67.007812 124.617188 66.214844 124.910156 65.386719 C 125.203125 64.558594 125.410156 63.707031 125.535156 62.839844 C 125.660156 61.96875 125.699219 61.09375 125.652344 60.214844 C 125.605469 59.339844 125.472656 58.472656 125.257812 57.621094 C 125.039062 56.769531 124.742188 55.945312 124.359375 55.152344 C 123.980469 54.359375 123.527344 53.613281 123 52.910156 C 122.476562 52.203125 121.882812 51.558594 121.230469 50.972656 C 120.574219 50.382812 119.871094 49.867188 119.113281 49.417969 C 118.359375 48.96875 117.566406 48.597656 116.738281 48.304688 C 115.90625 48.011719 115.058594 47.804688 114.1875 47.679688 C 113.316406 47.554688 112.441406 47.515625 111.566406 47.5625 C 110.6875 47.609375 109.824219 47.742188 108.96875 47.957031 C 108.117188 48.175781 107.296875 48.476562 106.503906 48.855469 Z M 106.503906 48.855469 " fill-opacity="1" fill-rule="nonzero"/><path fill="#090817" d="M 118.308594 80.605469 C 118.121094 80.605469 117.972656 80.53125 117.851562 80.390625 L 113.070312 74.601562 C 112.507812 74.632812 111.949219 74.632812 111.390625 74.59375 C 110.832031 74.558594 110.277344 74.488281 109.726562 74.382812 C 109.175781 74.277344 108.632812 74.140625 108.097656 73.96875 C 107.566406 73.796875 107.042969 73.59375 106.535156 73.355469 C 106.027344 73.121094 105.535156 72.855469 105.058594 72.558594 C 104.582031 72.265625 104.125 71.941406 103.6875 71.589844 C 103.253906 71.234375 102.839844 70.859375 102.449219 70.457031 C 102.058594 70.054688 101.695312 69.628906 101.359375 69.179688 C 101.019531 68.734375 100.710938 68.265625 100.429688 67.78125 C 100.152344 67.296875 99.902344 66.796875 99.683594 66.28125 C 99.464844 65.761719 99.277344 65.234375 99.121094 64.695312 C 98.96875 64.15625 98.847656 63.613281 98.761719 63.058594 C 98.675781 62.503906 98.621094 61.945312 98.601562 61.386719 C 98.585938 60.828125 98.601562 60.265625 98.648438 59.707031 C 98.699219 59.148438 98.785156 58.597656 98.902344 58.050781 C 99.019531 57.5 99.171875 56.960938 99.355469 56.433594 C 99.539062 55.902344 99.757812 55.386719 100.003906 54.882812 C 100.25 54.382812 100.527344 53.894531 100.835938 53.425781 C 101.144531 52.957031 101.476562 52.507812 101.839844 52.082031 C 102.203125 51.65625 102.589844 51.25 103.003906 50.871094 C 103.414062 50.488281 103.847656 50.136719 104.304688 49.808594 C 104.757812 49.484375 105.234375 49.183594 105.726562 48.917969 C 106.21875 48.648438 106.722656 48.410156 107.246094 48.203125 C 107.765625 47.996094 108.296875 47.824219 108.839844 47.683594 C 109.382812 47.542969 109.933594 47.433594 110.488281 47.359375 C 111.042969 47.289062 111.601562 47.246094 112.164062 47.242188 C 112.722656 47.238281 113.28125 47.265625 113.839844 47.332031 C 114.394531 47.394531 114.945312 47.492188 115.492188 47.621094 C 116.035156 47.753906 116.570312 47.917969 117.097656 48.117188 C 117.621094 48.3125 118.132812 48.539062 118.628906 48.800781 C 119.125 49.058594 119.605469 49.347656 120.066406 49.667969 C 120.527344 49.988281 120.96875 50.332031 121.386719 50.703125 C 121.804688 51.078125 122.199219 51.472656 122.570312 51.894531 C 122.9375 52.316406 123.28125 52.757812 123.597656 53.222656 C 123.914062 53.683594 124.199219 54.164062 124.457031 54.664062 C 124.714844 55.164062 124.9375 55.675781 125.132812 56.199219 C 125.328125 56.726562 125.488281 57.261719 125.613281 57.808594 C 125.742188 58.355469 125.835938 58.90625 125.898438 59.464844 C 125.957031 60.019531 125.984375 60.578125 125.976562 61.140625 C 125.964844 61.699219 125.921875 62.257812 125.847656 62.8125 C 125.769531 63.367188 125.660156 63.917969 125.515625 64.457031 C 125.371094 65 125.191406 65.53125 124.984375 66.050781 C 124.773438 66.570312 124.535156 67.078125 124.261719 67.566406 C 123.988281 68.058594 123.691406 68.527344 123.359375 68.984375 C 123.03125 69.4375 122.675781 69.867188 122.292969 70.277344 C 121.910156 70.6875 121.503906 71.070312 121.074219 71.429688 C 120.644531 71.792969 120.191406 72.125 119.722656 72.429688 C 119.25 72.734375 118.761719 73.007812 118.257812 73.25 L 118.898438 79.957031 C 118.914062 80.128906 118.863281 80.28125 118.746094 80.410156 C 118.628906 80.539062 118.484375 80.605469 118.308594 80.605469 Z M 113.203125 73.992188 C 113.296875 73.992188 113.375 74.027344 113.433594 74.097656 L 118.316406 80.003906 L 117.640625 73.097656 C 117.625 72.957031 117.683594 72.855469 117.8125 72.796875 L 117.933594 72.742188 C 118.417969 72.507812 118.886719 72.25 119.339844 71.957031 C 119.792969 71.667969 120.226562 71.351562 120.640625 71.007812 C 121.054688 70.667969 121.445312 70.300781 121.8125 69.90625 C 122.183594 69.515625 122.527344 69.105469 122.84375 68.671875 C 123.160156 68.238281 123.453125 67.785156 123.714844 67.316406 C 123.976562 66.847656 124.207031 66.363281 124.410156 65.867188 C 124.613281 65.367188 124.785156 64.859375 124.925781 64.339844 C 125.066406 63.820312 125.171875 63.296875 125.246094 62.761719 C 125.324219 62.230469 125.367188 61.695312 125.375 61.160156 C 125.382812 60.621094 125.359375 60.085938 125.304688 59.550781 C 125.246094 59.015625 125.15625 58.488281 125.035156 57.964844 C 124.914062 57.441406 124.761719 56.925781 124.574219 56.421875 C 124.390625 55.917969 124.175781 55.425781 123.929688 54.945312 C 123.683594 54.46875 123.410156 54.007812 123.105469 53.5625 C 122.804688 53.117188 122.476562 52.695312 122.121094 52.289062 C 121.765625 51.886719 121.386719 51.507812 120.984375 51.148438 C 120.585938 50.792969 120.160156 50.460938 119.71875 50.15625 C 119.277344 49.851562 118.816406 49.574219 118.339844 49.324219 C 117.863281 49.074219 117.375 48.855469 116.871094 48.667969 C 116.367188 48.480469 115.855469 48.324219 115.332031 48.199219 C 114.808594 48.074219 114.28125 47.980469 113.746094 47.921875 C 113.210938 47.863281 112.675781 47.835938 112.136719 47.839844 C 111.601562 47.847656 111.066406 47.886719 110.53125 47.957031 C 110 48.03125 109.472656 48.132812 108.953125 48.269531 C 108.433594 48.40625 107.925781 48.574219 107.425781 48.777344 C 106.925781 48.976562 106.441406 49.203125 105.96875 49.464844 C 105.5 49.722656 105.046875 50.011719 104.609375 50.324219 C 104.175781 50.640625 103.761719 50.980469 103.367188 51.347656 C 102.972656 51.714844 102.605469 52.101562 102.257812 52.515625 C 101.914062 52.925781 101.59375 53.359375 101.300781 53.808594 C 101.007812 54.257812 100.746094 54.726562 100.511719 55.210938 C 100.273438 55.695312 100.070312 56.191406 99.898438 56.699219 C 99.722656 57.207031 99.582031 57.726562 99.472656 58.25 C 99.363281 58.777344 99.285156 59.308594 99.238281 59.84375 C 99.195312 60.378906 99.183594 60.917969 99.203125 61.453125 C 99.226562 61.992188 99.28125 62.523438 99.367188 63.054688 C 99.453125 63.585938 99.574219 64.109375 99.726562 64.625 C 99.878906 65.140625 100.058594 65.644531 100.273438 66.136719 C 100.488281 66.628906 100.730469 67.109375 101.003906 67.570312 C 101.277344 68.035156 101.578125 68.480469 101.902344 68.90625 C 102.230469 69.332031 102.585938 69.738281 102.960938 70.121094 C 103.339844 70.503906 103.738281 70.863281 104.160156 71.195312 C 104.582031 71.527344 105.019531 71.835938 105.480469 72.113281 C 105.941406 72.394531 106.414062 72.644531 106.90625 72.867188 C 107.394531 73.085938 107.894531 73.277344 108.410156 73.433594 C 108.921875 73.59375 109.445312 73.722656 109.972656 73.816406 C 110.503906 73.910156 111.035156 73.972656 111.574219 74.003906 C 112.109375 74.03125 112.644531 74.027344 113.183594 73.992188 Z M 113.203125 73.992188 " fill-opacity="1" fill-rule="nonzero"/><path fill="#545454" d="M 107.617188 68.261719 C 107.53125 68.261719 107.457031 68.230469 107.398438 68.171875 L 104.859375 65.632812 C 104.800781 65.570312 104.769531 65.5 104.769531 65.414062 C 104.769531 65.328125 104.800781 65.257812 104.859375 65.195312 L 117.019531 53.039062 C 117.078125 52.976562 117.152344 52.949219 117.238281 52.949219 C 117.320312 52.949219 117.394531 52.976562 117.453125 53.039062 L 119.992188 55.578125 C 120.054688 55.636719 120.082031 55.707031 120.082031 55.792969 C 120.082031 55.878906 120.054688 55.953125 119.992188 56.011719 L 107.832031 68.171875 C 107.773438 68.230469 107.699219 68.261719 107.617188 68.261719 Z M 107.617188 68.261719 " fill-opacity="1" fill-rule="nonzero"/><path fill="#545454" d="M 117.234375 68.261719 C 117.152344 68.261719 117.078125 68.230469 117.019531 68.171875 L 104.859375 56.011719 C 104.800781 55.953125 104.769531 55.878906 104.769531 55.792969 C 104.769531 55.707031 104.800781 55.636719 104.859375 55.578125 L 107.398438 53.039062 C 107.457031 52.976562 107.53125 52.949219 107.617188 52.949219 C 107.699219 52.949219 107.773438 52.976562 107.832031 53.039062 L 119.992188 65.195312 C 120.054688 65.257812 120.082031 65.328125 120.082031 65.414062 C 120.082031 65.5 120.054688 65.570312 119.992188 65.632812 L 117.453125 68.171875 C 117.394531 68.230469 117.320312 68.261719 117.234375 68.261719 Z M 117.234375 68.261719 " fill-opacity="1" fill-rule="nonzero"/><path fill="#ffffff" d="M 80.386719 61.753906 C 80.054688 60.816406 79.480469 60.058594 78.667969 59.484375 C 78.667969 59.484375 78.007812 59.039062 74.976562 58.378906 C 70.441406 55.859375 65.902344 53.339844 61.367188 50.816406 C 58.027344 47.53125 55.03125 43.957031 52.378906 40.089844 C 51.558594 38.886719 50.660156 37.320312 48.78125 36.011719 C 45.957031 34.042969 43.605469 35.0625 41.308594 35.183594 C 41.703125 37.230469 41.542969 38.851562 43.0625 42.023438 C 46.109375 48.394531 50.390625 52.078125 52.453125 53.832031 C 54.957031 55.949219 57.683594 57.730469 60.628906 59.167969 C 63.574219 60.609375 66.65625 61.664062 69.863281 62.335938 C 69.863281 62.335938 73.648438 63.277344 74.730469 64.546875 C 75.816406 65.816406 75.867188 66.027344 76.90625 65.761719 C 77.941406 65.496094 78.328125 65.152344 77.824219 64.890625 C 77.203125 64.5625 76.921875 63.144531 77.453125 62.296875 C 77.964844 61.492188 79.253906 61.15625 80.386719 61.753906 Z M 80.386719 61.753906 " fill-opacity="1" fill-rule="nonzero"/><path fill="#090817" d="M 76.285156 66.164062 C 75.699219 66.164062 75.414062 65.820312 74.769531 65.058594 L 74.5 64.742188 C 73.488281 63.558594 69.828125 62.636719 69.789062 62.628906 L 69.773438 62.625 C 66.546875 61.941406 63.449219 60.875 60.488281 59.425781 C 57.523438 57.976562 54.78125 56.1875 52.257812 54.0625 C 50.355469 52.445312 45.902344 48.660156 42.789062 42.152344 C 41.941406 40.4375 41.425781 38.632812 41.238281 36.730469 C 41.171875 36.226562 41.109375 35.75 41.011719 35.242188 C 40.992188 35.152344 41.011719 35.070312 41.070312 35 C 41.125 34.925781 41.199219 34.890625 41.289062 34.882812 C 41.796875 34.855469 42.300781 34.785156 42.832031 34.710938 C 44.628906 34.460938 46.667969 34.171875 48.953125 35.765625 C 50.648438 36.945312 51.578125 38.347656 52.324219 39.472656 C 52.425781 39.625 52.527344 39.777344 52.625 39.921875 C 55.261719 43.753906 58.238281 47.304688 61.546875 50.574219 L 75.082031 58.097656 C 78.050781 58.742188 78.765625 59.1875 78.835938 59.234375 C 79.695312 59.847656 80.304688 60.652344 80.664062 61.644531 C 80.71875 61.773438 80.691406 61.886719 80.589844 61.980469 C 80.484375 62.074219 80.371094 62.085938 80.246094 62.023438 C 79.230469 61.488281 78.113281 61.816406 77.707031 62.460938 C 77.449219 62.933594 77.394531 63.429688 77.546875 63.949219 C 77.597656 64.226562 77.734375 64.453125 77.960938 64.625 C 78.328125 64.816406 78.355469 65.066406 78.339844 65.195312 C 78.296875 65.558594 77.863281 65.828125 76.976562 66.054688 C 76.75 66.117188 76.519531 66.15625 76.285156 66.164062 Z M 69.964844 62.050781 C 70.339844 62.144531 73.863281 63.066406 74.957031 64.351562 L 75.230469 64.671875 C 76.050781 65.644531 76.066406 65.664062 76.828125 65.472656 C 77.128906 65.410156 77.410156 65.304688 77.675781 65.152344 C 77.289062 64.90625 77.050781 64.554688 76.964844 64.105469 C 76.769531 63.417969 76.847656 62.761719 77.199219 62.140625 C 77.707031 61.335938 78.777344 60.992188 79.804688 61.222656 C 79.492188 60.621094 79.058594 60.125 78.5 59.734375 C 78.496094 59.730469 77.792969 59.300781 74.914062 58.675781 C 74.882812 58.667969 74.855469 58.660156 74.832031 58.644531 L 61.21875 51.082031 C 61.195312 51.066406 61.171875 51.050781 61.152344 51.03125 C 57.804688 47.726562 54.792969 44.136719 52.125 40.261719 C 52.027344 40.113281 51.925781 39.960938 51.824219 39.804688 C 51.066406 38.667969 50.210938 37.375 48.609375 36.261719 C 46.519531 34.804688 44.6875 35.058594 42.917969 35.308594 C 42.507812 35.367188 42.082031 35.425781 41.664062 35.460938 C 41.734375 35.871094 41.78125 36.265625 41.835938 36.652344 C 42.015625 38.492188 42.515625 40.238281 43.332031 41.894531 C 46.390625 48.285156 50.777344 52.011719 52.648438 53.601562 C 55.136719 55.703125 57.839844 57.464844 60.765625 58.894531 C 63.6875 60.320312 66.742188 61.371094 69.925781 62.042969 C 69.9375 62.042969 69.953125 62.046875 69.964844 62.050781 Z M 69.964844 62.050781 " fill-opacity="1" fill-rule="nonzero"/><path fill="#000000" d="M 42.113281 33.550781 C 42.113281 33.550781 46.105469 32.761719 50.207031 36.285156 C 53.160156 38.816406 59.289062 48.195312 59.289062 48.195312 C 59.289062 48.195312 57.664062 53.363281 54.066406 55.636719 L 47.378906 49.898438 C 40.300781 45.453125 36.832031 39.566406 38.296875 35.808594 C 38.59375 35.042969 40.464844 34.539062 42.113281 33.550781 Z M 42.113281 33.550781 " fill-opacity="1" fill-rule="nonzero"/><path fill="#ffffff" d="M 38.339844 93.621094 C 38.257812 93.621094 38.191406 93.59375 38.132812 93.539062 C 38.074219 93.480469 38.042969 93.414062 38.039062 93.332031 L 37.660156 84.171875 L 36.171875 80.199219 C 36.144531 80.121094 36.144531 80.042969 36.179688 79.964844 C 36.210938 79.886719 36.269531 79.835938 36.347656 79.804688 C 36.425781 79.777344 36.503906 79.777344 36.582031 79.816406 C 36.65625 79.851562 36.710938 79.910156 36.738281 79.988281 L 38.242188 84.007812 C 38.253906 84.035156 38.261719 84.066406 38.261719 84.101562 L 38.640625 93.308594 C 38.644531 93.390625 38.617188 93.464844 38.5625 93.527344 C 38.503906 93.585938 38.4375 93.617188 38.351562 93.621094 Z M 38.339844 93.621094 " fill-opacity="1" fill-rule="nonzero"/><path fill="#ffffff" d="M 51.285156 51.335938 C 51.203125 51.335938 51.132812 51.308594 51.078125 51.253906 C 51.019531 51.195312 50.988281 51.128906 50.984375 51.046875 L 50.667969 40.574219 C 50.664062 40.492188 50.691406 40.417969 50.75 40.359375 C 50.804688 40.300781 50.875 40.265625 50.960938 40.265625 C 51.042969 40.261719 51.113281 40.289062 51.175781 40.347656 C 51.234375 40.402344 51.265625 40.472656 51.269531 40.554688 L 51.585938 51.027344 C 51.589844 51.109375 51.5625 51.183594 51.503906 51.242188 C 51.449219 51.304688 51.378906 51.335938 51.292969 51.335938 Z M 51.285156 51.335938 " fill-opacity="1" fill-rule="nonzero"/><path fill="#ffffff" d="M 25.628906 34.953125 C 20.492188 37.78125 10.441406 41.894531 10.613281 48.171875 C 10.65625 49.863281 11.417969 51.050781 12.9375 53.355469 C 15.304688 56.925781 18.277344 59.890625 21.859375 62.242188 C 22.078125 62.640625 22.25 63.054688 22.375 63.488281 C 23.015625 65.722656 22.074219 67.449219 23.007812 68.289062 C 23.226562 68.480469 23.628906 68.707031 24.4375 68.644531 C 24.644531 67.898438 25.503906 64.847656 26.378906 62.578125 C 26.566406 62.09375 26.773438 61.59375 27.253906 61.386719 C 27.976562 61.078125 28.644531 61.730469 29.632812 61.347656 C 29.890625 61.25 30.210938 61.125 30.265625 60.871094 C 30.402344 60.238281 28.742188 59.25 27.292969 58.808594 C 26.929688 58.691406 26.558594 58.609375 26.183594 58.5625 C 23.890625 54.839844 21.601562 51.113281 19.308594 47.386719 C 21.832031 46.742188 29.722656 44.378906 33.507812 37.15625 C 34.144531 35.9375 34.628906 34.664062 34.960938 33.328125 C 34.960938 33.328125 29.859375 32.628906 25.628906 34.953125 Z M 25.628906 34.953125 " fill-opacity="1" fill-rule="nonzero"/><path fill="#090817" d="M 24.175781 68.957031 C 23.664062 68.984375 23.207031 68.835938 22.808594 68.511719 C 22.203125 67.96875 22.242188 67.164062 22.289062 66.234375 C 22.375 65.335938 22.308594 64.449219 22.085938 63.574219 C 21.972656 63.183594 21.820312 62.808594 21.628906 62.453125 C 18.039062 60.085938 15.058594 57.109375 12.6875 53.519531 C 11.1875 51.246094 10.359375 49.992188 10.308594 48.183594 C 10.160156 42.613281 17.597656 38.78125 23.023438 35.984375 C 23.914062 35.527344 24.75 35.09375 25.484375 34.6875 C 29.75 32.34375 34.789062 33 35 33.027344 C 35.089844 33.039062 35.160156 33.082031 35.207031 33.15625 C 35.257812 33.230469 35.273438 33.3125 35.25 33.398438 C 34.914062 34.757812 34.421875 36.054688 33.773438 37.292969 C 30.363281 43.804688 23.703125 46.511719 19.777344 47.574219 L 26.363281 58.28125 C 26.707031 58.335938 27.046875 58.414062 27.378906 58.519531 C 28.46875 58.851562 30.78125 59.917969 30.5625 60.933594 C 30.46875 61.347656 30.03125 61.515625 29.738281 61.625 C 29.234375 61.804688 28.726562 61.820312 28.210938 61.675781 C 27.933594 61.582031 27.652344 61.578125 27.371094 61.664062 C 27.019531 61.8125 26.847656 62.195312 26.660156 62.683594 C 25.847656 64.796875 25.039062 67.613281 24.726562 68.726562 C 24.6875 68.859375 24.601562 68.933594 24.460938 68.945312 C 24.363281 68.953125 24.269531 68.957031 24.175781 68.957031 Z M 33.136719 33.535156 C 31.300781 33.535156 28.355469 33.796875 25.773438 35.21875 C 25.035156 35.625 24.191406 36.058594 23.300781 36.519531 C 18.015625 39.242188 10.773438 42.976562 10.914062 48.167969 C 10.953125 49.738281 11.640625 50.84375 13.191406 53.191406 C 15.53125 56.730469 18.476562 59.664062 22.023438 61.992188 C 22.066406 62.019531 22.097656 62.054688 22.121094 62.097656 C 22.351562 62.515625 22.53125 62.949219 22.664062 63.40625 C 22.902344 64.347656 22.980469 65.296875 22.890625 66.265625 C 22.847656 67.105469 22.816406 67.714844 23.210938 68.066406 C 23.503906 68.292969 23.835938 68.386719 24.207031 68.355469 C 24.554688 67.121094 25.324219 64.480469 26.097656 62.46875 C 26.277344 62.007812 26.519531 61.375 27.132812 61.113281 C 27.53125 60.972656 27.929688 60.964844 28.332031 61.085938 C 28.730469 61.207031 29.128906 61.203125 29.523438 61.066406 C 29.652344 61.019531 29.953125 60.902344 29.972656 60.808594 C 30.03125 60.539062 28.875 59.605469 27.203125 59.097656 C 26.859375 58.988281 26.507812 58.910156 26.152344 58.863281 C 26.050781 58.855469 25.976562 58.808594 25.921875 58.722656 L 19.054688 47.546875 C 19 47.460938 18.992188 47.371094 19.03125 47.277344 C 19.066406 47.183594 19.136719 47.121094 19.234375 47.097656 C 22.996094 46.132812 29.820312 43.546875 33.238281 37.015625 C 33.808594 35.921875 34.257812 34.78125 34.578125 33.589844 C 34.273438 33.566406 33.773438 33.535156 33.136719 33.535156 Z M 25.628906 34.953125 Z M 25.628906 34.953125 " fill-opacity="1" fill-rule="nonzero"/><path fill="#000000" d="M 34.828125 32.972656 C 34.828125 32.972656 30.375 32.496094 27.617188 33.449219 C 24.863281 34.398438 17.050781 39.277344 17.050781 39.277344 C 17.050781 39.277344 19.125 44.480469 22.191406 46.964844 C 22.191406 46.964844 29.171875 45.75 32.820312 42.046875 C 36.46875 38.347656 36.65625 33.082031 34.828125 32.972656 Z M 34.828125 32.972656 " fill-opacity="1" fill-rule="nonzero"/><path fill="#ffffff" d="M 26.261719 46.152344 C 26.25 46.152344 26.234375 46.152344 26.222656 46.148438 C 26.140625 46.136719 26.074219 46.101562 26.023438 46.035156 C 25.972656 45.96875 25.953125 45.894531 25.964844 45.8125 L 26.875 38.78125 C 26.882812 38.699219 26.921875 38.628906 26.988281 38.574219 C 27.054688 38.523438 27.128906 38.5 27.214844 38.511719 C 27.296875 38.523438 27.367188 38.5625 27.417969 38.632812 C 27.46875 38.699219 27.484375 38.777344 27.472656 38.859375 L 26.558594 45.890625 C 26.539062 46.0625 26.4375 46.152344 26.261719 46.152344 Z M 26.261719 46.152344 " fill-opacity="1" fill-rule="nonzero"/><path fill="#ffffff" d="M 49.953125 19.203125 C 49.933594 18.550781 49.851562 17.90625 49.710938 17.269531 C 49.574219 16.628906 49.375 16.011719 49.125 15.40625 C 48.871094 14.804688 48.566406 14.230469 48.207031 13.683594 C 47.851562 13.136719 47.445312 12.628906 46.996094 12.15625 C 46.546875 11.683594 46.054688 11.253906 45.527344 10.871094 C 44.996094 10.488281 44.4375 10.15625 43.847656 9.875 C 43.261719 9.59375 42.648438 9.367188 42.019531 9.195312 C 41.390625 9.027344 40.746094 8.914062 40.097656 8.859375 C 39.445312 8.808594 38.796875 8.8125 38.144531 8.878906 C 37.496094 8.945312 36.855469 9.070312 36.230469 9.25 C 35.601562 9.433594 34.996094 9.667969 34.414062 9.960938 C 33.828125 10.253906 33.277344 10.597656 32.753906 10.992188 C 32.234375 11.382812 31.75 11.820312 31.308594 12.300781 C 30.867188 12.785156 30.472656 13.300781 30.125 13.855469 C 29.777344 14.40625 29.484375 14.988281 29.242188 15.59375 C 29 16.199219 28.816406 16.824219 28.6875 17.464844 C 28.527344 17.394531 28.359375 17.339844 28.183594 17.3125 C 28.011719 17.28125 27.835938 17.273438 27.660156 17.285156 C 27.480469 17.296875 27.308594 17.332031 27.140625 17.386719 C 26.972656 17.445312 26.816406 17.519531 26.667969 17.613281 C 26.515625 17.710938 26.382812 17.820312 26.261719 17.949219 C 26.136719 18.078125 26.035156 18.21875 25.949219 18.375 C 25.859375 18.527344 25.792969 18.691406 25.75 18.863281 C 25.703125 19.03125 25.675781 19.207031 25.675781 19.382812 C 25.671875 19.5625 25.691406 19.734375 25.730469 19.90625 C 25.769531 20.082031 25.832031 20.246094 25.910156 20.402344 C 25.992188 20.558594 26.089844 20.703125 26.207031 20.835938 C 26.324219 20.96875 26.457031 21.085938 26.601562 21.1875 C 26.75 21.289062 26.90625 21.367188 27.070312 21.429688 C 27.234375 21.492188 27.40625 21.53125 27.582031 21.550781 C 27.757812 21.570312 27.933594 21.570312 28.109375 21.542969 C 28.285156 21.519531 28.453125 21.476562 28.617188 21.410156 C 28.667969 21.863281 29.308594 27.070312 34.117188 29.671875 C 34.917969 30.105469 35.761719 30.425781 36.644531 30.640625 C 37.53125 30.855469 38.425781 30.957031 39.335938 30.9375 C 40.246094 30.921875 41.140625 30.789062 42.015625 30.542969 C 42.890625 30.296875 43.722656 29.941406 44.507812 29.484375 C 45.566406 28.835938 46.488281 28.027344 47.269531 27.0625 C 48.054688 26.097656 48.652344 25.03125 49.066406 23.859375 C 49.140625 23.691406 49.207031 23.523438 49.273438 23.351562 C 49.574219 23.464844 49.882812 23.507812 50.203125 23.480469 C 50.523438 23.453125 50.820312 23.359375 51.097656 23.199219 C 51.375 23.039062 51.605469 22.828125 51.789062 22.5625 C 51.972656 22.300781 52.089844 22.011719 52.140625 21.695312 C 52.191406 21.375 52.175781 21.066406 52.085938 20.757812 C 51.996094 20.449219 51.847656 20.171875 51.636719 19.933594 C 51.425781 19.691406 51.171875 19.507812 50.878906 19.378906 C 50.582031 19.253906 50.273438 19.195312 49.953125 19.203125 Z M 49.953125 19.203125 " fill-opacity="1" fill-rule="nonzero"/><path fill="#090817" d="M 39.152344 31.242188 C 37.316406 31.246094 35.589844 30.808594 33.972656 29.9375 C 29.617188 27.582031 28.589844 23.171875 28.367188 21.800781 C 28.214844 21.835938 28.0625 21.859375 27.902344 21.863281 C 27.582031 21.871094 27.269531 21.816406 26.972656 21.699219 C 26.671875 21.585938 26.402344 21.417969 26.167969 21.195312 C 25.933594 20.976562 25.75 20.71875 25.621094 20.425781 C 25.488281 20.128906 25.414062 19.824219 25.40625 19.5 C 25.394531 19.179688 25.445312 18.867188 25.558594 18.566406 C 25.667969 18.265625 25.835938 17.996094 26.054688 17.761719 C 26.273438 17.523438 26.527344 17.335938 26.820312 17.203125 C 27.113281 17.066406 27.417969 16.992188 27.738281 16.976562 C 27.988281 16.96875 28.230469 17 28.464844 17.066406 C 28.617188 16.421875 28.820312 15.800781 29.082031 15.195312 C 29.339844 14.589844 29.652344 14.015625 30.015625 13.464844 C 30.378906 12.917969 30.789062 12.40625 31.246094 11.929688 C 31.699219 11.453125 32.195312 11.023438 32.726562 10.636719 C 33.257812 10.25 33.820312 9.910156 34.414062 9.625 C 35.003906 9.339844 35.617188 9.105469 36.253906 8.929688 C 36.886719 8.753906 37.53125 8.632812 38.1875 8.570312 C 38.84375 8.511719 39.496094 8.507812 40.152344 8.5625 C 40.808594 8.617188 41.453125 8.730469 42.089844 8.902344 C 42.726562 9.074219 43.339844 9.300781 43.9375 9.582031 C 44.53125 9.863281 45.097656 10.195312 45.632812 10.578125 C 46.167969 10.957031 46.667969 11.386719 47.125 11.855469 C 47.585938 12.328125 48 12.835938 48.367188 13.382812 C 48.738281 13.925781 49.054688 14.5 49.320312 15.101562 C 49.585938 15.703125 49.796875 16.324219 49.953125 16.964844 C 50.105469 17.605469 50.203125 18.253906 50.242188 18.910156 C 50.550781 18.9375 50.84375 19.023438 51.125 19.160156 C 51.402344 19.300781 51.644531 19.488281 51.851562 19.71875 C 52.058594 19.953125 52.214844 20.214844 52.320312 20.507812 C 52.425781 20.796875 52.476562 21.101562 52.46875 21.410156 C 52.457031 21.722656 52.394531 22.019531 52.269531 22.304688 C 52.148438 22.59375 51.976562 22.84375 51.757812 23.066406 C 51.539062 23.285156 51.289062 23.460938 51.003906 23.582031 C 50.71875 23.707031 50.417969 23.777344 50.109375 23.785156 C 49.886719 23.792969 49.667969 23.773438 49.449219 23.71875 C 49.417969 23.804688 49.378906 23.890625 49.34375 23.976562 C 48.917969 25.179688 48.304688 26.273438 47.5 27.261719 C 46.695312 28.253906 45.75 29.078125 44.660156 29.738281 C 42.960938 30.746094 41.125 31.246094 39.152344 31.242188 Z M 28.617188 21.109375 C 28.800781 21.109375 28.898438 21.199219 28.917969 21.378906 C 28.976562 21.9375 29.628906 26.902344 34.261719 29.410156 C 35.039062 29.828125 35.859375 30.144531 36.714844 30.351562 C 37.574219 30.5625 38.449219 30.65625 39.332031 30.640625 C 40.214844 30.625 41.082031 30.496094 41.933594 30.257812 C 42.785156 30.015625 43.589844 29.671875 44.355469 29.226562 C 45.386719 28.597656 46.28125 27.8125 47.042969 26.875 C 47.800781 25.9375 48.382812 24.898438 48.785156 23.757812 C 48.863281 23.578125 48.929688 23.414062 48.992188 23.246094 C 49.019531 23.167969 49.074219 23.113281 49.148438 23.078125 C 49.226562 23.046875 49.300781 23.042969 49.378906 23.070312 C 49.636719 23.167969 49.902344 23.207031 50.179688 23.183594 C 50.453125 23.160156 50.710938 23.082031 50.949219 22.941406 C 51.1875 22.804688 51.382812 22.621094 51.542969 22.394531 C 51.699219 22.167969 51.796875 21.917969 51.84375 21.648438 C 51.886719 21.375 51.871094 21.105469 51.796875 20.839844 C 51.722656 20.574219 51.59375 20.339844 51.410156 20.132812 C 51.226562 19.925781 51.011719 19.765625 50.757812 19.65625 C 50.503906 19.546875 50.238281 19.5 49.964844 19.507812 C 49.882812 19.507812 49.8125 19.480469 49.75 19.421875 C 49.691406 19.367188 49.660156 19.296875 49.652344 19.21875 C 49.632812 18.582031 49.554688 17.953125 49.417969 17.335938 C 49.285156 16.714844 49.09375 16.109375 48.847656 15.523438 C 48.601562 14.941406 48.304688 14.382812 47.957031 13.847656 C 47.609375 13.316406 47.21875 12.824219 46.777344 12.363281 C 46.339844 11.902344 45.863281 11.488281 45.351562 11.113281 C 44.835938 10.742188 44.292969 10.417969 43.71875 10.144531 C 43.148438 9.871094 42.554688 9.648438 41.941406 9.484375 C 41.328125 9.320312 40.703125 9.210938 40.070312 9.160156 C 39.4375 9.105469 38.808594 9.113281 38.175781 9.175781 C 37.542969 9.242188 36.921875 9.359375 36.3125 9.539062 C 35.703125 9.714844 35.113281 9.945312 34.546875 10.230469 C 33.976562 10.515625 33.441406 10.847656 32.933594 11.230469 C 32.425781 11.613281 31.957031 12.039062 31.527344 12.503906 C 31.101562 12.972656 30.714844 13.476562 30.378906 14.015625 C 30.042969 14.550781 29.753906 15.117188 29.519531 15.707031 C 29.285156 16.296875 29.105469 16.902344 28.984375 17.527344 C 28.964844 17.621094 28.910156 17.691406 28.828125 17.734375 C 28.742188 17.777344 28.652344 17.78125 28.566406 17.742188 C 28.308594 17.628906 28.039062 17.574219 27.757812 17.582031 C 27.488281 17.59375 27.230469 17.65625 26.984375 17.78125 C 26.742188 17.902344 26.535156 18.070312 26.367188 18.285156 C 26.199219 18.5 26.085938 18.738281 26.023438 19.003906 C 25.960938 19.269531 25.957031 19.535156 26.011719 19.804688 C 26.070312 20.070312 26.179688 20.3125 26.34375 20.53125 C 26.507812 20.75 26.710938 20.921875 26.949219 21.050781 C 27.191406 21.175781 27.445312 21.25 27.71875 21.261719 C 27.992188 21.277344 28.253906 21.234375 28.503906 21.132812 C 28.542969 21.117188 28.578125 21.109375 28.617188 21.109375 Z M 28.617188 21.109375 " fill-opacity="1" fill-rule="nonzero"/><path fill="#545454" d="M 31.734375 18.28125 C 31.59375 18.28125 31.5 18.214844 31.453125 18.085938 C 31.402344 17.953125 31.433594 17.84375 31.539062 17.75 C 32.195312 17.167969 32.957031 16.792969 33.824219 16.636719 C 34.6875 16.480469 35.53125 16.558594 36.351562 16.871094 C 36.429688 16.90625 36.480469 16.960938 36.511719 17.039062 C 36.542969 17.117188 36.539062 17.191406 36.507812 17.269531 C 36.472656 17.34375 36.417969 17.398438 36.339844 17.429688 C 36.261719 17.457031 36.1875 17.457031 36.109375 17.421875 C 35.394531 17.152344 34.660156 17.089844 33.910156 17.230469 C 33.15625 17.375 32.496094 17.699219 31.929688 18.210938 C 31.871094 18.257812 31.808594 18.28125 31.734375 18.28125 Z M 31.734375 18.28125 " fill-opacity="1" fill-rule="nonzero"/><path fill="#545454" d="M 36.015625 20.367188 C 36.015625 20.519531 35.984375 20.667969 35.925781 20.808594 C 35.867188 20.949219 35.785156 21.074219 35.679688 21.179688 C 35.570312 21.289062 35.445312 21.371094 35.304688 21.429688 C 35.164062 21.488281 35.015625 21.519531 34.863281 21.519531 C 34.710938 21.519531 34.5625 21.488281 34.421875 21.429688 C 34.28125 21.371094 34.15625 21.289062 34.050781 21.179688 C 33.941406 21.074219 33.859375 20.949219 33.800781 20.808594 C 33.742188 20.667969 33.710938 20.519531 33.710938 20.367188 C 33.710938 20.214844 33.742188 20.066406 33.800781 19.925781 C 33.859375 19.785156 33.941406 19.660156 34.050781 19.554688 C 34.15625 19.445312 34.28125 19.363281 34.421875 19.304688 C 34.5625 19.246094 34.710938 19.214844 34.863281 19.214844 C 35.015625 19.214844 35.164062 19.246094 35.304688 19.304688 C 35.445312 19.363281 35.570312 19.445312 35.679688 19.554688 C 35.785156 19.660156 35.867188 19.785156 35.925781 19.925781 C 35.984375 20.066406 36.015625 20.214844 36.015625 20.367188 Z M 36.015625 20.367188 " fill-opacity="1" fill-rule="nonzero"/><path fill="#545454" d="M 46.175781 18.503906 C 46.089844 18.503906 46.015625 18.472656 45.957031 18.40625 C 45.496094 17.914062 44.941406 17.589844 44.285156 17.433594 C 43.632812 17.28125 42.988281 17.320312 42.359375 17.554688 C 42.28125 17.585938 42.203125 17.582031 42.128906 17.546875 C 42.054688 17.511719 42 17.457031 41.972656 17.378906 C 41.941406 17.300781 41.945312 17.222656 41.980469 17.148438 C 42.015625 17.074219 42.070312 17.019531 42.148438 16.992188 C 42.90625 16.710938 43.675781 16.667969 44.460938 16.859375 C 45.21875 17.046875 45.863281 17.425781 46.394531 17.996094 C 46.484375 18.09375 46.503906 18.203125 46.449219 18.320312 C 46.398438 18.441406 46.304688 18.503906 46.175781 18.503906 Z M 46.175781 18.503906 " fill-opacity="1" fill-rule="nonzero"/><path fill="#545454" d="M 45.023438 20.421875 C 45.023438 20.574219 44.992188 20.722656 44.933594 20.863281 C 44.875 21.003906 44.792969 21.128906 44.683594 21.234375 C 44.578125 21.34375 44.453125 21.425781 44.3125 21.484375 C 44.171875 21.542969 44.023438 21.574219 43.871094 21.574219 C 43.71875 21.574219 43.570312 21.542969 43.429688 21.484375 C 43.289062 21.425781 43.164062 21.34375 43.058594 21.234375 C 42.949219 21.128906 42.867188 21.003906 42.808594 20.863281 C 42.75 20.722656 42.71875 20.574219 42.71875 20.421875 C 42.71875 20.269531 42.75 20.121094 42.808594 19.980469 C 42.867188 19.839844 42.949219 19.714844 43.058594 19.605469 C 43.164062 19.5 43.289062 19.417969 43.429688 19.359375 C 43.570312 19.300781 43.71875 19.269531 43.871094 19.269531 C 44.023438 19.269531 44.171875 19.300781 44.3125 19.359375 C 44.453125 19.417969 44.578125 19.5 44.683594 19.605469 C 44.792969 19.714844 44.875 19.839844 44.933594 19.980469 C 44.992188 20.121094 45.023438 20.269531 45.023438 20.421875 Z M 45.023438 20.421875 " fill-opacity="1" fill-rule="nonzero"/><path fill="#545454" d="M 39.289062 23.425781 C 39.074219 23.425781 38.859375 23.414062 38.648438 23.386719 C 38.566406 23.378906 38.5 23.339844 38.449219 23.273438 C 38.398438 23.210938 38.378906 23.136719 38.390625 23.054688 C 38.398438 22.972656 38.4375 22.90625 38.5 22.855469 C 38.5625 22.804688 38.636719 22.78125 38.71875 22.789062 C 39.339844 22.863281 40.019531 22.808594 40.113281 22.675781 C 40.191406 22.429688 39.789062 21.015625 39.359375 19.863281 C 39.332031 19.785156 39.332031 19.707031 39.367188 19.632812 C 39.402344 19.554688 39.457031 19.503906 39.535156 19.472656 C 39.613281 19.445312 39.691406 19.449219 39.765625 19.480469 C 39.84375 19.515625 39.894531 19.574219 39.925781 19.652344 C 40.40625 20.941406 40.914062 22.570312 40.605469 23.015625 C 40.375 23.351562 39.78125 23.425781 39.289062 23.425781 Z M 39.289062 23.425781 " fill-opacity="1" fill-rule="nonzero"/><path fill="#000000" d="M 33.132812 22.195312 C 33.34375 22.203125 33.546875 22.242188 33.738281 22.304688 C 33.929688 22.367188 34.097656 22.449219 34.242188 22.554688 C 34.386719 22.65625 34.496094 22.777344 34.570312 22.90625 C 34.644531 23.039062 34.679688 23.171875 34.671875 23.308594 C 34.664062 23.445312 34.617188 23.578125 34.53125 23.699219 C 34.445312 23.824219 34.324219 23.929688 34.171875 24.019531 C 34.015625 24.109375 33.839844 24.175781 33.644531 24.21875 C 33.445312 24.261719 33.242188 24.277344 33.03125 24.269531 C 32.820312 24.257812 32.621094 24.222656 32.429688 24.160156 C 32.234375 24.097656 32.066406 24.011719 31.921875 23.910156 C 31.78125 23.804688 31.671875 23.6875 31.597656 23.554688 C 31.519531 23.425781 31.488281 23.289062 31.496094 23.152344 C 31.5 23.015625 31.546875 22.886719 31.636719 22.761719 C 31.722656 22.640625 31.84375 22.53125 31.996094 22.441406 C 32.148438 22.351562 32.324219 22.285156 32.523438 22.242188 C 32.71875 22.199219 32.921875 22.183594 33.132812 22.195312 Z M 33.132812 22.195312 " fill-opacity="1" fill-rule="nonzero"/><path fill="#000000" d="M 44.785156 22.480469 C 44.996094 22.492188 45.199219 22.527344 45.390625 22.589844 C 45.582031 22.652344 45.75 22.734375 45.894531 22.839844 C 46.039062 22.945312 46.148438 23.0625 46.222656 23.191406 C 46.296875 23.324219 46.332031 23.457031 46.324219 23.597656 C 46.316406 23.734375 46.269531 23.863281 46.183594 23.988281 C 46.097656 24.109375 45.976562 24.214844 45.820312 24.304688 C 45.667969 24.394531 45.492188 24.460938 45.296875 24.503906 C 45.097656 24.546875 44.894531 24.566406 44.683594 24.554688 C 44.472656 24.542969 44.273438 24.507812 44.078125 24.445312 C 43.886719 24.382812 43.71875 24.300781 43.574219 24.195312 C 43.429688 24.089844 43.320312 23.972656 43.246094 23.839844 C 43.171875 23.710938 43.140625 23.578125 43.144531 23.4375 C 43.152344 23.300781 43.199219 23.171875 43.285156 23.046875 C 43.375 22.925781 43.492188 22.820312 43.648438 22.730469 C 43.800781 22.640625 43.976562 22.574219 44.175781 22.53125 C 44.371094 22.488281 44.574219 22.46875 44.785156 22.480469 Z M 44.785156 22.480469 " fill-opacity="1" fill-rule="nonzero"/><g clip-path="url(#e70908a318)"><path fill="#545454" d="M 27.40625 17.324219 C 27.664062 17.347656 27.898438 17.433594 28.105469 17.585938 C 28.316406 17.738281 28.46875 17.933594 28.574219 18.167969 C 29 19.011719 30.3125 19.179688 30.835938 16.992188 C 31.355469 14.804688 34.214844 10.167969 37.730469 9.59375 C 37.730469 9.59375 38.128906 13.824219 42.828125 14.0625 C 47.53125 14.304688 48.058594 19.453125 48.628906 19.90625 C 49.203125 20.355469 49.757812 19.3125 50.300781 19.222656 C 50.847656 19.132812 51.75 20.074219 51.75 20.074219 C 52.777344 18.039062 53.683594 15.410156 52.570312 13.5 C 51.980469 12.488281 51.335938 12.550781 49.320312 11.226562 C 45.207031 8.527344 44.800781 6.246094 42.261719 5.910156 C 41.476562 5.804688 40.238281 5.855469 38.589844 6.824219 C 33.246094 7.160156 29.277344 8.496094 28.167969 9.980469 C 27.710938 10.570312 27.414062 11.230469 27.28125 11.964844 C 27.175781 12.847656 27.476562 13.316406 27.625 14.285156 C 27.773438 15.3125 27.699219 16.324219 27.40625 17.324219 Z M 27.40625 17.324219 " fill-opacity="1" fill-rule="nonzero"/></g><path fill="#545454" d="M 28.046875 20.574219 C 27.984375 20.574219 27.929688 20.558594 27.882812 20.527344 C 27.542969 20.332031 27.351562 20.042969 27.304688 19.660156 C 27.285156 19.398438 27.339844 19.152344 27.464844 18.921875 L 26.726562 18.921875 C 26.644531 18.921875 26.570312 18.894531 26.511719 18.835938 C 26.453125 18.777344 26.425781 18.707031 26.425781 18.621094 C 26.425781 18.539062 26.453125 18.46875 26.511719 18.410156 C 26.570312 18.351562 26.644531 18.320312 26.726562 18.320312 L 28.046875 18.320312 C 28.183594 18.320312 28.273438 18.382812 28.324219 18.507812 C 28.375 18.632812 28.355469 18.742188 28.257812 18.835938 C 28.039062 19.046875 27.921875 19.300781 27.902344 19.601562 C 27.9375 19.792969 28.039062 19.933594 28.210938 20.023438 C 28.335938 20.105469 28.378906 20.21875 28.335938 20.359375 C 28.292969 20.503906 28.195312 20.574219 28.046875 20.574219 Z M 28.046875 20.574219 " fill-opacity="1" fill-rule="nonzero"/><path fill="#545454" d="M 49.71875 22.777344 C 49.574219 22.777344 49.480469 22.710938 49.433594 22.570312 C 49.386719 22.433594 49.425781 22.320312 49.542969 22.234375 C 49.710938 22.128906 49.8125 21.976562 49.839844 21.777344 C 49.828125 21.464844 49.714844 21.191406 49.5 20.960938 C 49.410156 20.867188 49.390625 20.757812 49.445312 20.636719 C 49.496094 20.515625 49.589844 20.457031 49.71875 20.457031 L 51.207031 20.457031 C 51.289062 20.457031 51.359375 20.484375 51.417969 20.546875 C 51.476562 20.605469 51.507812 20.675781 51.507812 20.757812 C 51.507812 20.839844 51.476562 20.910156 51.417969 20.96875 C 51.359375 21.03125 51.289062 21.058594 51.207031 21.058594 L 50.28125 21.058594 C 50.402344 21.300781 50.457031 21.558594 50.4375 21.832031 C 50.394531 22.210938 50.214844 22.507812 49.898438 22.71875 C 49.84375 22.757812 49.785156 22.777344 49.71875 22.777344 Z M 49.71875 22.777344 " fill-opacity="1" fill-rule="nonzero"/><path fill="#545454" d="M 39.335938 26.960938 C 39.246094 26.960938 39.171875 26.929688 39.113281 26.863281 C 38.769531 26.472656 38.351562 26.195312 37.855469 26.035156 C 37.359375 25.875 36.859375 25.855469 36.351562 25.972656 C 36.273438 25.996094 36.195312 25.988281 36.125 25.945312 C 36.050781 25.90625 36.003906 25.847656 35.980469 25.765625 C 35.957031 25.6875 35.964844 25.613281 36.003906 25.539062 C 36.046875 25.464844 36.105469 25.417969 36.183594 25.394531 C 36.800781 25.246094 37.414062 25.265625 38.019531 25.457031 C 38.625 25.648438 39.136719 25.984375 39.558594 26.460938 C 39.644531 26.554688 39.664062 26.664062 39.609375 26.785156 C 39.558594 26.902344 39.464844 26.960938 39.335938 26.960938 Z M 39.335938 26.960938 " fill-opacity="1" fill-rule="nonzero"/><path fill="#ffffff" d="M 30.386719 13.273438 C 30.367188 13.273438 30.351562 13.269531 30.332031 13.265625 C 30.25 13.253906 30.1875 13.210938 30.140625 13.140625 C 30.089844 13.074219 30.074219 13 30.089844 12.917969 C 30.097656 12.882812 30.757812 9.460938 34.796875 8.53125 C 34.878906 8.511719 34.953125 8.523438 35.023438 8.570312 C 35.09375 8.613281 35.136719 8.675781 35.15625 8.757812 C 35.175781 8.835938 35.164062 8.914062 35.117188 8.984375 C 35.074219 9.054688 35.011719 9.097656 34.929688 9.117188 C 31.277344 9.960938 30.6875 12.992188 30.683594 13.023438 C 30.652344 13.1875 30.554688 13.273438 30.386719 13.273438 Z M 30.386719 13.273438 " fill-opacity="1" fill-rule="nonzero"/><path fill="#ffffff" d="M 46.175781 13.273438 L 46.160156 13.273438 C 41.476562 13.035156 39.957031 9.894531 39.894531 9.761719 C 39.859375 9.6875 39.855469 9.609375 39.886719 9.53125 C 39.914062 9.453125 39.964844 9.398438 40.039062 9.363281 C 40.117188 9.324219 40.191406 9.324219 40.269531 9.351562 C 40.347656 9.378906 40.40625 9.429688 40.441406 9.503906 C 40.757812 10.085938 41.171875 10.589844 41.683594 11.011719 C 42.867188 12.019531 44.382812 12.582031 46.191406 12.671875 C 46.273438 12.675781 46.34375 12.707031 46.402344 12.765625 C 46.457031 12.828125 46.484375 12.898438 46.484375 12.980469 C 46.480469 13.0625 46.449219 13.132812 46.390625 13.191406 C 46.332031 13.25 46.257812 13.277344 46.175781 13.273438 Z M 46.175781 13.273438 " fill-opacity="1" fill-rule="nonzero"/><path fill="#ffffff" d="M 45.152344 10.957031 C 44.40625 10.949219 43.699219 10.78125 43.03125 10.453125 C 42.960938 10.414062 42.914062 10.355469 42.890625 10.277344 C 42.867188 10.199219 42.875 10.125 42.910156 10.050781 C 42.949219 9.980469 43.007812 9.929688 43.085938 9.90625 C 43.164062 9.878906 43.238281 9.886719 43.3125 9.921875 C 43.324219 9.929688 44.71875 10.644531 46.085938 10.21875 C 46.164062 10.195312 46.242188 10.199219 46.316406 10.238281 C 46.390625 10.277344 46.4375 10.335938 46.464844 10.414062 C 46.488281 10.496094 46.480469 10.570312 46.441406 10.644531 C 46.402344 10.71875 46.34375 10.769531 46.265625 10.792969 C 45.902344 10.90625 45.53125 10.960938 45.152344 10.957031 Z M 45.152344 10.957031 " fill-opacity="1" fill-rule="nonzero"/><path fill="#545454" d="M 48.273438 137.910156 C 48.144531 137.910156 48.054688 137.851562 48 137.734375 C 47.945312 137.621094 47.960938 137.511719 48.042969 137.414062 C 48.136719 137.308594 50.351562 134.769531 54.777344 135.660156 C 54.859375 135.675781 54.921875 135.71875 54.964844 135.789062 C 55.011719 135.855469 55.027344 135.933594 55.007812 136.011719 C 54.992188 136.09375 54.949219 136.15625 54.882812 136.203125 C 54.816406 136.25 54.742188 136.265625 54.660156 136.25 C 50.59375 135.433594 48.519531 137.78125 48.5 137.804688 C 48.441406 137.875 48.363281 137.910156 48.273438 137.910156 Z M 48.273438 137.910156 " fill-opacity="1" fill-rule="nonzero"/><path fill="#545454" d="M 19.308594 47.6875 C 19.253906 47.6875 19.203125 47.675781 19.15625 47.648438 C 17.238281 46.503906 14.707031 46.152344 14.679688 46.148438 C 14.597656 46.136719 14.535156 46.097656 14.484375 46.03125 C 14.433594 45.964844 14.414062 45.890625 14.425781 45.808594 C 14.4375 45.730469 14.476562 45.664062 14.539062 45.613281 C 14.605469 45.5625 14.679688 45.542969 14.761719 45.550781 C 14.871094 45.566406 17.4375 45.921875 19.464844 47.128906 C 19.59375 47.207031 19.640625 47.320312 19.601562 47.46875 C 19.558594 47.617188 19.460938 47.6875 19.308594 47.6875 Z M 19.308594 47.6875 " fill-opacity="1" fill-rule="nonzero"/><path fill="#545454" d="M 58.496094 52.871094 C 58.371094 52.871094 58.28125 52.816406 58.226562 52.703125 C 58.171875 52.589844 58.183594 52.484375 58.257812 52.386719 C 58.308594 52.320312 59.546875 50.734375 61.328125 50.519531 C 61.414062 50.507812 61.488281 50.53125 61.550781 50.582031 C 61.617188 50.632812 61.65625 50.699219 61.664062 50.78125 C 61.675781 50.863281 61.65625 50.9375 61.605469 51.003906 C 61.550781 51.070312 61.484375 51.105469 61.402344 51.117188 C 59.875 51.300781 58.746094 52.738281 58.734375 52.753906 C 58.675781 52.832031 58.59375 52.871094 58.496094 52.871094 Z M 58.496094 52.871094 " fill-opacity="1" fill-rule="nonzero"/></svg>