<svg id="visual" viewBox="0 0 900 600" width="900" height="600" xmlns="http://www.w3.org/2000/svg" xmlns:xlink="http://www.w3.org/1999/xlink" version="1.1"><rect x="0" y="0" width="900" height="600" fill="#ffffff"></rect><path d="M0 422L21.5 416.8C43 411.7 86 401.3 128.8 396C171.7 390.7 214.3 390.3 257.2 399C300 407.7 343 425.3 385.8 431C428.7 436.7 471.3 430.3 514.2 420.5C557 410.7 600 397.3 642.8 397.8C685.7 398.3 728.3 412.7 771.2 410.8C814 409 857 391 878.5 382L900 373L900 601L878.5 601C857 601 814 601 771.2 601C728.3 601 685.7 601 642.8 601C600 601 557 601 514.2 601C471.3 601 428.7 601 385.8 601C343 601 300 601 257.2 601C214.3 601 171.7 601 128.8 601C86 601 43 601 21.5 601L0 601Z" fill="#12171e"></path><path d="M0 467L21.5 465.5C43 464 86 461 128.8 463C171.7 465 214.3 472 257.2 475.8C300 479.7 343 480.3 385.8 477.3C428.7 474.3 471.3 467.7 514.2 467.2C557 466.7 600 472.3 642.8 473C685.7 473.7 728.3 469.3 771.2 462.8C814 456.3 857 447.7 878.5 443.3L900 439L900 601L878.5 601C857 601 814 601 771.2 601C728.3 601 685.7 601 642.8 601C600 601 557 601 514.2 601C471.3 601 428.7 601 385.8 601C343 601 300 601 257.2 601C214.3 601 171.7 601 128.8 601C86 601 43 601 21.5 601L0 601Z" fill="#1f242c"></path><path d="M0 535L21.5 532.5C43 530 86 525 128.8 518.5C171.7 512 214.3 504 257.2 506.7C300 509.3 343 522.7 385.8 528.3C428.7 534 471.3 532 514.2 534C557 536 600 542 642.8 543.7C685.7 545.3 728.3 542.7 771.2 540.8C814 539 857 538 878.5 537.5L900 537L900 601L878.5 601C857 601 814 601 771.2 601C728.3 601 685.7 601 642.8 601C600 601 557 601 514.2 601C471.3 601 428.7 601 385.8 601C343 601 300 601 257.2 601C214.3 601 171.7 601 128.8 601C86 601 43 601 21.5 601L0 601Z" fill="#12171e"></path></svg>