<svg xmlns="http://www.w3.org/2000/svg" xmlns:xlink="http://www.w3.org/1999/xlink" width="450" zoomAndPan="magnify" viewBox="0 0 337.5 337.500003" height="450" preserveAspectRatio="xMidYMid meet" version="1.0"><defs><clipPath id="6dff2a3a77"><path d="M 3 26.511719 L 334 26.511719 L 334 303.601562 L 3 303.601562 Z M 3 26.511719 " clip-rule="nonzero"/></clipPath></defs><g clip-path="url(#6dff2a3a77)"><path fill="#000000" d="M 166.253906 91.539062 C 165.445312 90.492188 164.472656 89.5625 163.425781 88.707031 C 163.785156 88.421875 164.132812 88.121094 164.433594 87.78125 C 165.585938 86.492188 166.652344 83.890625 164.851562 82.640625 C 163.804688 82.035156 162.625 82.601562 161.851562 83.394531 C 161.058594 84.203125 160.699219 85.351562 159.890625 86.136719 C 159.703125 86.011719 159.515625 85.886719 159.332031 85.757812 C 157.53125 84.542969 155.683594 83.402344 153.808594 82.292969 C 148.558594 79.289062 143.230469 76.453125 137.742188 73.902344 C 132.011719 71.238281 126.074219 68.578125 119.910156 67.09375 C 118.738281 66.8125 114.550781 65.765625 113.847656 67.515625 C 110.3125 72.308594 106.839844 77.152344 103.382812 82.007812 C 96.28125 91.992188 89.296875 102.070312 82.621094 112.351562 C 79.460938 117.21875 76.363281 122.136719 73.46875 127.171875 C 71.394531 130.773438 69.3125 134.460938 67.847656 138.363281 C 62.796875 151.769531 60.429688 166.625 63.636719 180.738281 C 64.644531 185.175781 66.207031 189.433594 67.660156 193.742188 C 68.773438 197.050781 69.867188 200.527344 69.582031 204.058594 C 69.40625 206.191406 68.648438 207.972656 67.6875 209.820312 C 66.132812 212.832031 64.578125 215.84375 63.019531 218.851562 C 58.128906 228.3125 53.238281 237.769531 48.351562 247.226562 C 45.183594 253.355469 42.019531 259.484375 38.851562 265.609375 C 37.960938 267.339844 36.625 268.402344 34.75 268.960938 C 31.78125 269.84375 28.269531 269.890625 25.214844 269.449219 C 19.738281 268.660156 14.269531 267.375 8.707031 267.347656 C 7.203125 267.339844 4.671875 267.246094 3.636719 268.628906 C 2.695312 269.882812 3.761719 271.539062 4.550781 272.558594 C 6.277344 274.808594 8.605469 276.625 10.851562 278.328125 C 13.953125 280.675781 17.214844 282.804688 20.53125 284.828125 C 26.566406 288.511719 32.871094 291.84375 39.285156 294.835938 C 45.9375 297.933594 52.925781 301.015625 60.148438 302.496094 C 61.957031 302.871094 64.410156 303.425781 66.167969 302.570312 C 67.585938 301.875 67.460938 300.414062 66.914062 299.152344 C 65.90625 296.835938 64.078125 294.820312 62.417969 292.957031 C 60.421875 290.714844 58.300781 288.59375 56.179688 286.472656 C 54.285156 284.574219 52.613281 282.746094 51.125 280.488281 C 49.316406 277.753906 47.496094 274.410156 49.136719 271.179688 C 49.972656 269.53125 50.820312 267.894531 51.664062 266.25 C 56.128906 257.535156 60.597656 248.824219 65.058594 240.105469 C 69.167969 232.082031 73.277344 224.066406 77.386719 216.042969 C 78.277344 214.292969 79.058594 212.609375 80.433594 211.164062 C 83.015625 208.4375 86.621094 207.105469 90.125 206.015625 C 94.667969 204.59375 99.261719 203.394531 103.671875 201.5625 C 109.582031 199.113281 115.023438 195.738281 119.898438 191.597656 C 126.207031 186.25 131.9375 179.714844 136.371094 172.726562 C 138.726562 169.023438 140.574219 164.984375 142.371094 160.992188 C 147.351562 149.871094 151.625 138.429688 155.777344 126.976562 C 159.191406 117.550781 162.480469 108.085938 165.660156 98.582031 C 166.140625 97.140625 166.621094 95.703125 167.09375 94.261719 C 167.453125 93.375 166.808594 92.253906 166.253906 91.539062 Z M 117.957031 67.363281 C 120.304688 67.75 122.601562 68.488281 124.839844 69.269531 C 127.914062 70.34375 130.929688 71.574219 133.90625 72.886719 C 139.867188 75.511719 145.71875 78.421875 151.367188 81.660156 C 152.066406 82.058594 152.773438 82.460938 153.472656 82.859375 C 155.457031 84.03125 157.4375 85.238281 159.34375 86.539062 C 158.890625 86.78125 158.363281 86.851562 157.855469 86.710938 C 157.175781 86.527344 156.734375 85.953125 156.1875 85.542969 C 155.363281 84.921875 153.839844 84.816406 153.628906 86.117188 C 153.519531 86.78125 153.828125 87.375 154.195312 87.902344 C 154.410156 88.203125 154.648438 88.5 154.78125 88.847656 C 154.933594 89.261719 154.902344 89.691406 154.808594 90.109375 C 152.027344 89.027344 149.300781 87.789062 146.605469 86.519531 C 138.601562 82.753906 130.605469 78.65625 123.226562 73.761719 C 121.933594 72.910156 120.640625 72.027344 119.484375 70.992188 C 119.144531 70.691406 118.796875 70.371094 118.539062 70.003906 C 118.464844 69.898438 118.359375 69.726562 118.335938 69.652344 C 118.296875 69.53125 118.3125 69.492188 118.304688 69.503906 C 118.492188 69.117188 117.910156 68.777344 117.730469 69.171875 C 117.429688 69.804688 118.003906 70.453125 118.410156 70.886719 C 119.257812 71.792969 120.296875 72.542969 121.304688 73.253906 C 124.632812 75.632812 128.210938 77.679688 131.777344 79.671875 C 136.125 82.09375 140.554688 84.375 145.050781 86.527344 C 148.898438 88.363281 152.792969 90.144531 156.808594 91.570312 C 157.195312 91.710938 157.582031 91.847656 157.976562 91.980469 C 158.164062 92.046875 158.351562 92.121094 158.542969 92.1875 C 158.582031 92.199219 158.617188 92.199219 158.65625 92.199219 C 159.496094 92.460938 160.34375 92.6875 161.210938 92.8125 C 161.863281 92.90625 163.027344 93.074219 163.398438 92.339844 C 163.59375 91.960938 163.019531 91.617188 162.824219 92.007812 C 162.773438 92.121094 162.652344 92.171875 162.410156 92.214844 C 162.039062 92.265625 161.632812 92.214844 161.257812 92.152344 C 160.566406 92.046875 159.882812 91.871094 159.203125 91.671875 C 159.890625 90.898438 160.90625 90.402344 161.773438 89.871094 C 162.136719 89.644531 162.5 89.410156 162.851562 89.164062 C 162.925781 89.222656 163 89.277344 163.066406 89.335938 C 164.039062 90.144531 165.019531 91 165.78125 92.011719 C 166.160156 92.519531 166.734375 93.320312 166.488281 94 C 166.488281 94.007812 166.480469 94.015625 166.480469 94.023438 C 165.992188 95.289062 163.074219 94.601562 162.117188 94.410156 C 158.984375 93.78125 155.941406 92.667969 152.972656 91.503906 C 149.050781 89.976562 145.210938 88.242188 141.421875 86.398438 C 134.097656 82.839844 126.773438 78.957031 120.171875 74.164062 C 118.289062 72.796875 116.050781 71.253906 114.816406 69.222656 C 114.554688 68.789062 114.261719 68.164062 114.507812 67.753906 C 115.074219 66.792969 117.109375 67.226562 117.957031 67.363281 Z M 160.839844 110.667969 C 156.875 122.117188 152.78125 133.519531 148.367188 144.800781 C 146.238281 150.234375 144.042969 155.640625 141.648438 160.960938 C 139.886719 164.871094 138.066406 168.828125 135.753906 172.453125 C 131.230469 179.550781 125.394531 186.164062 118.925781 191.542969 C 113.976562 195.664062 108.417969 198.988281 102.4375 201.34375 C 98.113281 203.046875 93.625 204.175781 89.210938 205.601562 C 85.84375 206.691406 82.433594 208.070312 79.953125 210.695312 C 78.605469 212.117188 77.816406 213.71875 76.9375 215.433594 C 75.277344 218.679688 73.609375 221.921875 71.949219 225.171875 C 67.105469 234.617188 62.269531 244.0625 57.429688 253.507812 C 54.480469 259.261719 51.503906 265.003906 48.585938 270.769531 C 47.570312 272.765625 47.609375 274.789062 48.402344 276.867188 C 49.503906 279.734375 51.417969 282.527344 53.539062 284.75 C 57.382812 288.78125 61.671875 292.503906 64.898438 297.070312 C 65.605469 298.070312 67.621094 300.675781 66.160156 301.796875 C 64.617188 302.976562 61.503906 302.117188 59.84375 301.75 C 52.480469 300.128906 45.347656 296.984375 38.566406 293.761719 C 32.214844 290.742188 25.972656 287.417969 19.996094 283.714844 C 16.675781 281.65625 13.40625 279.496094 10.332031 277.085938 C 8.277344 275.476562 5.992188 273.703125 4.582031 271.453125 C 4.214844 270.863281 3.742188 270.023438 4.007812 269.300781 C 4.289062 268.554688 5.242188 268.335938 5.9375 268.195312 C 8.550781 267.679688 11.414062 268.074219 14.019531 268.386719 C 19.378906 269.023438 24.660156 270.464844 30.082031 270.265625 C 32.902344 270.15625 36.296875 269.828125 38.332031 267.613281 C 38.914062 266.980469 39.285156 266.21875 39.679688 265.464844 C 40.953125 263 42.226562 260.539062 43.5 258.074219 C 48.21875 248.949219 52.933594 239.824219 57.648438 230.699219 C 61.296875 223.644531 64.945312 216.589844 68.585938 209.535156 C 69.585938 207.597656 70.214844 205.582031 70.289062 203.386719 C 70.40625 199.910156 69.308594 196.503906 68.199219 193.253906 C 66.738281 188.953125 65.199219 184.6875 64.210938 180.25 C 62.871094 174.195312 62.523438 167.980469 63.058594 161.808594 C 63.75 153.757812 65.710938 145.558594 68.6875 138.058594 C 70.28125 134.027344 72.476562 130.214844 74.65625 126.476562 C 80.765625 115.996094 87.578125 105.921875 94.453125 95.945312 C 100.117188 87.726562 105.890625 79.589844 111.753906 71.519531 C 112.449219 70.574219 113.140625 69.625 113.835938 68.675781 C 114.015625 69.34375 114.46875 69.945312 114.902344 70.457031 C 115.714844 71.441406 116.695312 72.289062 117.683594 73.089844 C 120.527344 75.398438 123.632812 77.375 126.769531 79.257812 C 130.703125 81.621094 134.746094 83.808594 138.847656 85.863281 C 142.863281 87.875 146.945312 89.769531 151.101562 91.464844 C 152.066406 91.859375 153.046875 92.246094 154.027344 92.625 C 153.734375 93.820312 153.707031 95.078125 154.015625 96.277344 C 154.273438 97.304688 154.761719 98.375 155.722656 98.90625 C 156.429688 99.300781 157.34375 99.535156 158.070312 99.054688 C 158.710938 98.632812 158.996094 97.851562 159.089844 97.121094 C 159.15625 96.625 159.144531 96.136719 159.070312 95.644531 C 158.996094 95.164062 158.855469 94.695312 158.738281 94.230469 C 159.550781 94.46875 160.363281 94.6875 161.191406 94.875 C 162.457031 95.171875 164.660156 95.769531 166.085938 95.183594 C 164.371094 100.355469 162.617188 105.515625 160.839844 110.667969 Z M 41.714844 292.523438 C 45.824219 294.414062 50.011719 296.195312 54.328125 297.566406 C 55.875 298.050781 57.449219 298.5 59.054688 298.753906 C 60.011719 298.90625 61.109375 299.054688 62.042969 298.71875 C 62.449219 298.574219 62.625 299.21875 62.222656 299.359375 C 61.105469 299.753906 59.78125 299.554688 58.648438 299.355469 C 56.726562 299.027344 54.847656 298.453125 53.007812 297.824219 C 43.457031 294.609375 34.277344 289.949219 25.558594 284.929688 C 21.519531 282.597656 17.507812 280.144531 13.800781 277.300781 C 12.5 276.304688 11.21875 275.257812 10.085938 274.070312 C 9.34375 273.292969 8.578125 272.40625 8.25 271.363281 C 8.125 270.953125 8.765625 270.777344 8.890625 271.183594 C 9.257812 272.347656 10.253906 273.320312 11.101562 274.140625 C 12.507812 275.503906 14.066406 276.707031 15.65625 277.847656 C 23.726562 283.679688 32.703125 288.386719 41.714844 292.523438 Z M 35.304688 271.914062 C 35.117188 271.523438 35.691406 271.191406 35.878906 271.578125 C 36.207031 272.246094 36.9375 272.738281 37.519531 273.152344 C 38.460938 273.820312 39.460938 274.394531 40.480469 274.921875 C 41.527344 275.457031 42.609375 275.945312 43.722656 276.324219 C 44.4375 276.566406 45.324219 276.886719 46.089844 276.765625 C 46.511719 276.699219 46.691406 277.339844 46.269531 277.40625 C 45.394531 277.546875 44.476562 277.273438 43.648438 277 C 42.480469 276.617188 41.355469 276.109375 40.261719 275.558594 C 39.167969 275.003906 38.09375 274.390625 37.097656 273.667969 C 36.453125 273.199219 35.664062 272.652344 35.304688 271.914062 Z M 155.75 104.101562 C 155.742188 104.101562 155.742188 104.101562 155.75 104.101562 C 155.742188 104.101562 155.734375 104.101562 155.734375 104.09375 C 155.730469 104.09375 155.730469 104.09375 155.722656 104.09375 C 155.714844 104.09375 155.707031 104.09375 155.703125 104.09375 C 152.585938 103.480469 149.367188 104.320312 146.746094 106.070312 C 145.542969 106.878906 144.558594 107.867188 143.625 108.96875 C 143.128906 109.554688 142.628906 110.140625 142.054688 110.644531 C 141.394531 111.21875 140.628906 111.558594 139.820312 111.882812 C 139.074219 112.183594 138.375 112.511719 137.734375 113.003906 C 137.132812 113.472656 136.605469 114.015625 136.085938 114.554688 C 134.992188 115.6875 133.863281 116.625 132.378906 117.199219 C 129.570312 118.265625 126.476562 118.285156 123.714844 119.507812 C 121.140625 120.648438 119.164062 122.71875 116.976562 124.433594 C 115.902344 125.273438 114.742188 126.0625 113.449219 126.535156 C 111.914062 127.097656 110.292969 127.125 108.6875 126.890625 C 106.957031 126.636719 105.269531 126.15625 103.542969 125.921875 C 101.929688 125.707031 100.367188 125.796875 98.773438 126.136719 C 95.714844 126.789062 92.792969 128.125 89.65625 128.425781 C 87.097656 128.671875 84.523438 128.511719 81.953125 128.605469 C 80.039062 128.671875 77.589844 128.726562 76.070312 130.074219 C 75.785156 130.328125 75.550781 130.640625 75.390625 130.988281 C 75.382812 131 75.382812 131.015625 75.378906 131.027344 C 75.371094 131.042969 75.355469 131.046875 75.355469 131.0625 C 74.261719 133.867188 73.121094 136.648438 72.101562 139.480469 C 69.261719 147.449219 67.207031 155.800781 66.992188 164.289062 C 66.851562 169.925781 67.605469 175.511719 69.128906 180.925781 C 69.726562 183.054688 70.429688 185.148438 71.136719 187.238281 C 71.949219 189.640625 72.523438 192.21875 73.851562 194.394531 C 75.964844 197.867188 79.585938 200.324219 83.554688 201.117188 C 85.609375 201.53125 87.738281 201.503906 89.777344 201.042969 C 90.972656 200.769531 92.125 200.335938 93.292969 199.960938 C 97.929688 198.492188 102.53125 196.964844 106.871094 194.75 C 112.910156 191.671875 118.289062 187.472656 123.007812 182.621094 C 126.132812 179.402344 128.976562 175.910156 131.597656 172.273438 C 132.617188 170.859375 133.464844 169.476562 134.230469 167.914062 C 136.367188 163.582031 138.265625 159.136719 140.179688 154.703125 C 144.703125 144.226562 149.066406 133.679688 153.359375 123.105469 C 153.535156 122.679688 153.707031 122.246094 153.882812 121.816406 C 153.941406 121.730469 153.996094 121.636719 154.035156 121.535156 C 154.347656 120.714844 154.660156 119.894531 154.980469 119.074219 C 156.1875 116.023438 157.371094 112.878906 157.9375 109.636719 C 158.175781 108.261719 158.476562 106.402344 157.664062 105.144531 C 157.234375 104.496094 156.503906 104.226562 155.75 104.101562 Z M 80.898438 129.328125 C 83.433594 129.160156 85.976562 129.3125 88.515625 129.179688 C 89.789062 129.113281 91.042969 128.945312 92.292969 128.644531 C 93.886719 128.25 95.441406 127.71875 97.019531 127.269531 C 98.535156 126.84375 100.09375 126.457031 101.683594 126.457031 C 103.449219 126.457031 105.179688 126.898438 106.90625 127.242188 C 108.519531 127.570312 110.171875 127.84375 111.816406 127.625 C 113.15625 127.445312 114.421875 126.929688 115.578125 126.230469 C 117.929688 124.792969 119.804688 122.71875 122.085938 121.183594 C 123.292969 120.367188 124.585938 119.792969 125.996094 119.421875 C 127.429688 119.039062 128.894531 118.820312 130.34375 118.484375 C 131.777344 118.160156 133.203125 117.703125 134.445312 116.890625 C 135.6875 116.078125 136.585938 114.894531 137.679688 113.914062 C 138.3125 113.347656 139.007812 112.925781 139.792969 112.605469 C 140.535156 112.304688 141.296875 112.023438 141.957031 111.5625 C 143.191406 110.691406 144.035156 109.421875 145.0625 108.339844 C 146.816406 106.492188 149.238281 105.167969 151.765625 104.714844 C 151.308594 104.910156 150.851562 105.121094 150.425781 105.347656 C 148.800781 106.210938 147.292969 107.324219 145.984375 108.621094 C 144.644531 109.941406 143.65625 111.511719 142.46875 112.964844 C 141.867188 113.707031 141.195312 114.375 140.382812 114.882812 C 139.613281 115.363281 138.773438 115.714844 137.953125 116.082031 C 137.132812 116.457031 136.320312 116.851562 135.605469 117.398438 C 134.871094 117.957031 134.292969 118.679688 133.660156 119.347656 C 132.976562 120.066406 132.238281 120.601562 131.332031 121.007812 C 130.484375 121.394531 129.597656 121.703125 128.808594 122.210938 C 127.269531 123.210938 126.335938 124.867188 125.1875 126.25 C 122.914062 128.972656 120.011719 131.25 116.695312 132.570312 C 115.054688 133.222656 113.328125 133.644531 111.566406 133.765625 C 109.5 133.90625 107.4375 133.636719 105.417969 133.230469 C 101.683594 132.484375 98.035156 131.355469 94.207031 131.15625 C 91.171875 130.996094 88.125 131.136719 85.089844 131.25 C 82.566406 131.34375 79.984375 131.542969 77.464844 131.316406 C 77.125 131.28125 76.785156 131.242188 76.449219 131.15625 C 76.34375 131.128906 76.246094 131.09375 76.15625 131.0625 C 76.144531 131.054688 76.136719 131.046875 76.125 131.042969 C 77.050781 129.585938 79.359375 129.425781 80.898438 129.328125 Z M 133.4375 112.453125 C 132.503906 111.859375 131.53125 112.511719 130.769531 113.066406 C 130.761719 113.074219 130.757812 113.078125 130.75 113.085938 C 130.75 113.085938 130.742188 113.09375 130.742188 113.09375 C 130.402344 113.378906 130.117188 113.734375 129.902344 114.121094 C 129.683594 114.519531 129.503906 115.023438 129.675781 115.476562 C 129.964844 116.230469 130.898438 116.375 131.597656 116.195312 C 132.40625 115.988281 133.105469 115.457031 133.566406 114.773438 C 133.8125 114.40625 134.003906 113.972656 134.019531 113.53125 C 134.039062 113.078125 133.8125 112.683594 133.4375 112.453125 Z M 133.097656 114.253906 C 132.796875 114.773438 132.324219 115.203125 131.769531 115.433594 C 131.378906 115.601562 130.683594 115.757812 130.363281 115.367188 C 130.148438 115.101562 130.335938 114.707031 130.476562 114.453125 C 130.664062 114.113281 130.917969 113.820312 131.210938 113.566406 C 131.671875 113.226562 132.230469 112.773438 132.824219 112.914062 C 133.066406 112.972656 133.296875 113.121094 133.34375 113.378906 C 133.398438 113.679688 133.246094 114 133.097656 114.253906 Z M 136.160156 109.519531 C 136.113281 110.222656 136.394531 110.84375 137.078125 111.097656 C 137.792969 111.363281 138.554688 111.078125 139.195312 110.757812 C 140.433594 110.136719 141.480469 109.121094 142.164062 107.914062 C 142.503906 107.304688 142.855469 106.558594 142.855469 105.84375 C 142.855469 105.214844 142.484375 104.554688 141.820312 104.449219 C 141.402344 104.382812 140.988281 104.546875 140.640625 104.777344 C 140.273438 105.007812 139.953125 105.308594 139.5 105.335938 C 139.085938 105.355469 138.679688 105.214844 138.265625 105.257812 C 137.90625 105.289062 137.585938 105.417969 137.300781 105.636719 C 137.273438 105.644531 137.246094 105.648438 137.226562 105.667969 C 136.632812 106.097656 136.007812 106.589844 135.90625 107.371094 C 135.851562 107.777344 136.019531 108.058594 136.144531 108.433594 C 136.273438 108.78125 136.1875 109.152344 136.160156 109.519531 Z M 137.566406 106.238281 C 137.574219 106.238281 137.574219 106.230469 137.582031 106.222656 C 137.621094 106.210938 137.652344 106.191406 137.695312 106.164062 C 138.160156 105.761719 138.746094 105.964844 139.292969 105.996094 C 139.933594 106.03125 140.386719 105.75 140.902344 105.402344 C 141.140625 105.242188 141.441406 105.035156 141.75 105.109375 C 141.988281 105.164062 142.136719 105.402344 142.183594 105.636719 C 142.289062 106.191406 141.976562 106.839844 141.734375 107.324219 C 141.242188 108.292969 140.507812 109.140625 139.609375 109.75 C 139.128906 110.070312 138.582031 110.390625 138.007812 110.503906 C 137.453125 110.617188 136.847656 110.402344 136.828125 109.761719 C 136.820312 109.449219 136.886719 109.132812 136.886719 108.820312 C 136.886719 108.492188 136.78125 108.226562 136.660156 107.925781 C 136.347656 107.164062 137.011719 106.636719 137.566406 106.238281 Z M 129.703125 108.300781 C 130.097656 107.980469 130.503906 107.773438 130.984375 107.613281 C 131.898438 107.3125 132.945312 107.078125 133.5 106.203125 C 133.792969 105.738281 133.820312 105.109375 133.40625 104.707031 C 133.050781 104.367188 132.511719 104.269531 132.039062 104.308594 C 130.910156 104.402344 129.710938 104.660156 129.035156 105.65625 C 129.035156 105.65625 129.035156 105.65625 129.035156 105.664062 C 129.03125 105.667969 129.023438 105.675781 129.015625 105.683594 C 128.667969 106.203125 128.136719 106.625 127.902344 107.207031 C 127.707031 107.6875 127.796875 108.28125 128.234375 108.59375 C 128.742188 108.960938 129.28125 108.640625 129.703125 108.300781 Z M 128.5625 107.351562 C 128.683594 107.125 128.871094 106.945312 129.03125 106.75 C 129.230469 106.519531 129.417969 106.269531 129.589844 106.015625 C 129.589844 106.015625 129.589844 106.015625 129.589844 106.011719 C 129.597656 106.003906 129.601562 105.996094 129.609375 105.992188 C 130.050781 105.34375 130.851562 105.128906 131.585938 105.027344 C 131.9375 104.980469 132.3125 104.914062 132.65625 105.035156 C 133.066406 105.175781 133.136719 105.523438 132.910156 105.875 C 132.511719 106.511719 131.664062 106.699219 130.996094 106.90625 C 130.636719 107.019531 130.269531 107.144531 129.9375 107.324219 C 129.570312 107.519531 129.289062 107.867188 128.917969 108.046875 C 128.449219 108.265625 128.414062 107.632812 128.5625 107.351562 Z M 111.632812 125.613281 C 112.109375 125.773438 112.59375 125.667969 113.042969 125.460938 C 113.546875 125.226562 113.988281 124.941406 114.527344 124.789062 C 115.03125 124.648438 115.578125 124.511719 115.964844 124.140625 C 116.285156 123.824219 116.488281 123.351562 116.421875 122.90625 C 116.238281 121.722656 114.789062 122.042969 113.996094 122.25 C 113.136719 122.476562 112.289062 122.859375 111.546875 123.359375 C 111.148438 123.652344 110.800781 124.085938 110.8125 124.613281 C 110.835938 125.101562 111.1875 125.46875 111.632812 125.613281 Z M 114.421875 122.832031 C 114.742188 122.757812 115.136719 122.632812 115.46875 122.726562 C 115.769531 122.804688 115.828125 123.078125 115.714844 123.34375 C 115.582031 123.679688 115.277344 123.859375 114.949219 123.972656 C 114.535156 124.121094 114.109375 124.199219 113.707031 124.375 C 113.316406 124.546875 112.96875 124.808594 112.5625 124.949219 C 112.269531 125.054688 111.855469 125.085938 111.601562 124.855469 C 111.292969 124.558594 111.621094 124.121094 111.882812 123.933594 C 112.316406 123.640625 112.800781 123.371094 113.289062 123.179688 C 113.65625 123.023438 114.042969 122.917969 114.421875 122.832031 Z M 116.957031 121.074219 C 117.398438 121.070312 117.859375 120.808594 118.050781 120.402344 C 118.269531 119.933594 118.199219 119.300781 117.769531 118.972656 C 117.542969 118.800781 117.25 118.792969 116.984375 118.847656 C 116.738281 118.894531 116.503906 119.011719 116.316406 119.171875 C 116.304688 119.1875 116.296875 119.199219 116.289062 119.214844 C 115.964844 119.472656 115.84375 119.914062 115.957031 120.316406 C 116.078125 120.769531 116.484375 121.074219 116.957031 121.074219 Z M 116.5625 119.960938 C 116.5625 119.960938 116.5625 119.949219 116.5625 119.941406 C 116.570312 119.953125 116.570312 119.96875 116.5625 119.960938 Z M 116.949219 119.546875 C 116.992188 119.535156 117.03125 119.519531 117.070312 119.507812 C 117.105469 119.5 117.136719 119.488281 117.171875 119.480469 C 117.191406 119.480469 117.210938 119.472656 117.230469 119.472656 C 117.25 119.472656 117.265625 119.472656 117.285156 119.472656 C 117.285156 119.472656 117.289062 119.472656 117.296875 119.472656 C 117.304688 119.472656 117.308594 119.472656 117.308594 119.472656 C 117.324219 119.472656 117.335938 119.480469 117.351562 119.488281 C 117.355469 119.488281 117.355469 119.492188 117.363281 119.492188 C 117.363281 119.492188 117.363281 119.492188 117.371094 119.5 C 117.382812 119.515625 117.398438 119.527344 117.402344 119.539062 C 117.402344 119.539062 117.410156 119.546875 117.410156 119.546875 C 117.425781 119.5625 117.429688 119.582031 117.445312 119.601562 C 117.449219 119.613281 117.457031 119.628906 117.464844 119.632812 C 117.464844 119.640625 117.46875 119.648438 117.46875 119.652344 C 117.484375 119.695312 117.492188 119.734375 117.503906 119.773438 C 117.503906 119.792969 117.503906 119.820312 117.511719 119.839844 C 117.511719 119.859375 117.511719 119.882812 117.511719 119.902344 C 117.511719 119.902344 117.511719 119.90625 117.511719 119.914062 C 117.511719 119.929688 117.503906 119.941406 117.503906 119.949219 C 117.496094 119.96875 117.492188 119.996094 117.484375 120.015625 C 117.476562 120.027344 117.476562 120.042969 117.46875 120.054688 C 117.46875 120.0625 117.464844 120.0625 117.464844 120.066406 C 117.449219 120.101562 117.429688 120.128906 117.410156 120.160156 C 117.402344 120.175781 117.390625 120.179688 117.382812 120.195312 C 117.355469 120.222656 117.335938 120.242188 117.308594 120.261719 C 117.308594 120.261719 117.304688 120.269531 117.304688 120.269531 C 117.289062 120.28125 117.277344 120.289062 117.257812 120.296875 C 117.230469 120.316406 117.195312 120.328125 117.171875 120.339844 C 117.15625 120.347656 117.136719 120.355469 117.125 120.355469 C 117.089844 120.367188 117.058594 120.375 117.023438 120.382812 C 117.003906 120.382812 116.992188 120.382812 116.96875 120.382812 C 116.949219 120.382812 116.9375 120.382812 116.917969 120.382812 C 116.910156 120.382812 116.910156 120.382812 116.902344 120.382812 C 116.878906 120.375 116.851562 120.375 116.824219 120.363281 C 116.816406 120.363281 116.804688 120.355469 116.789062 120.347656 C 116.785156 120.347656 116.777344 120.339844 116.769531 120.339844 C 116.757812 120.335938 116.738281 120.328125 116.722656 120.316406 C 116.703125 120.296875 116.683594 120.28125 116.664062 120.261719 C 116.65625 120.253906 116.648438 120.25 116.648438 120.242188 C 116.644531 120.226562 116.628906 120.214844 116.625 120.203125 C 116.617188 120.195312 116.609375 120.175781 116.601562 120.160156 C 116.601562 120.160156 116.601562 120.15625 116.601562 120.15625 C 116.597656 120.136719 116.589844 120.121094 116.589844 120.101562 C 116.582031 120.082031 116.582031 120.066406 116.578125 120.046875 C 116.578125 120.015625 116.570312 119.972656 116.570312 119.941406 C 116.570312 119.929688 116.570312 119.921875 116.570312 119.90625 C 116.570312 119.90625 116.570312 119.902344 116.570312 119.902344 C 116.578125 119.867188 116.582031 119.835938 116.597656 119.808594 C 116.601562 119.792969 116.609375 119.78125 116.617188 119.769531 C 116.617188 119.761719 116.625 119.753906 116.628906 119.753906 C 116.636719 119.746094 116.644531 119.742188 116.648438 119.734375 C 116.65625 119.726562 116.671875 119.714844 116.675781 119.707031 C 116.675781 119.707031 116.683594 119.699219 116.683594 119.699219 C 116.710938 119.679688 116.730469 119.660156 116.75 119.632812 C 116.75 119.632812 116.757812 119.632812 116.757812 119.628906 C 116.742188 119.632812 116.738281 119.640625 116.757812 119.628906 C 116.769531 119.621094 116.785156 119.609375 116.796875 119.601562 C 116.832031 119.582031 116.863281 119.5625 116.902344 119.539062 C 116.921875 119.5625 116.9375 119.554688 116.949219 119.546875 Z M 144.050781 103.074219 C 144.335938 103.679688 145.058594 103.949219 145.703125 103.96875 C 146.597656 103.988281 147.3125 103.398438 147.878906 102.773438 C 148.226562 102.390625 148.53125 101.972656 149.03125 101.792969 C 149.53125 101.617188 150.078125 101.605469 150.574219 101.40625 C 151.308594 101.105469 151.765625 100.457031 152.007812 99.722656 C 152.300781 98.828125 152.289062 97.851562 152.261719 96.925781 C 152.242188 96.070312 152.339844 94.863281 151.574219 94.28125 C 150.804688 93.707031 149.8125 94 149.125 94.542969 C 148.324219 95.171875 147.730469 96.039062 147.164062 96.871094 C 146.816406 97.386719 146.484375 97.914062 146.109375 98.40625 C 145.757812 98.875 145.355469 99.300781 144.984375 99.761719 C 144.25 100.671875 143.683594 101.738281 143.964844 102.933594 C 143.984375 102.992188 144.015625 103.039062 144.050781 103.074219 Z M 145.464844 100.230469 C 145.992188 99.574219 146.542969 98.960938 147.023438 98.273438 C 147.511719 97.574219 147.953125 96.839844 148.480469 96.164062 C 148.964844 95.542969 149.640625 94.6875 150.492188 94.628906 C 151.566406 94.550781 151.546875 95.691406 151.582031 96.457031 C 151.613281 97.257812 151.652344 98.085938 151.519531 98.886719 C 151.414062 99.535156 151.1875 100.242188 150.621094 100.628906 C 149.984375 101.058594 149.144531 100.957031 148.472656 101.3125 C 147.683594 101.730469 147.296875 102.621094 146.53125 103.074219 C 146.039062 103.359375 144.871094 103.46875 144.636719 102.757812 C 144.628906 102.738281 144.617188 102.734375 144.609375 102.71875 C 144.410156 101.792969 144.902344 100.925781 145.464844 100.230469 Z M 158.855469 80.425781 C 158.636719 80.765625 158.703125 81.019531 158.777344 81.398438 C 158.882812 81.988281 158.683594 82.640625 158.035156 82.792969 C 157.757812 82.859375 157.4375 82.722656 157.195312 82.59375 C 156.371094 82.171875 155.890625 81.359375 156.089844 80.429688 C 156.195312 80.0625 156.4375 79.785156 156.574219 79.4375 C 156.714844 79.089844 156.734375 78.703125 156.796875 78.335938 C 156.917969 77.609375 157.28125 76.992188 157.949219 76.640625 C 158.515625 76.347656 159.210938 76.265625 159.789062 76.554688 C 160.292969 76.800781 160.644531 77.359375 160.617188 77.921875 C 160.585938 78.589844 159.972656 79.101562 159.5625 79.570312 C 159.324219 79.84375 159.050781 80.117188 158.855469 80.425781 Z M 165.398438 77.980469 C 165.394531 77.980469 165.453125 77.996094 165.425781 77.996094 C 165.441406 77.996094 165.492188 78 165.519531 78 C 165.632812 78.015625 165.734375 78.027344 165.839844 78.082031 C 166.226562 78.28125 166.253906 78.789062 166.066406 79.128906 C 165.707031 79.777344 164.847656 80.164062 164.132812 79.992188 C 163.460938 79.832031 163 79.238281 162.992188 78.550781 C 162.984375 78.023438 163.1875 77.273438 163.785156 77.140625 C 163.960938 77.082031 164.160156 77.082031 164.339844 77.101562 C 164.691406 77.152344 164.960938 77.382812 165.132812 77.679688 C 165.167969 77.734375 165.21875 77.820312 165.238281 77.839844 C 165.292969 77.902344 165.3125 77.929688 165.367188 77.953125 C 165.375 77.976562 165.441406 78 165.398438 77.980469 Z M 333.421875 259.671875 C 332.21875 258.355469 329.617188 258.507812 328.03125 258.542969 C 322.515625 258.65625 317.121094 259.949219 311.675781 260.683594 C 308.589844 261.097656 304.914062 261.046875 301.953125 260.003906 C 300.257812 259.410156 299.105469 258.328125 298.296875 256.746094 C 297.203125 254.617188 296.101562 252.496094 295.003906 250.371094 C 290.339844 241.347656 285.671875 232.324219 281.007812 223.292969 C 277.148438 215.816406 273.277344 208.339844 269.417969 200.863281 C 268.441406 198.988281 267.714844 197.136719 267.582031 194.980469 C 267.363281 191.425781 268.496094 187.941406 269.625 184.617188 C 271.097656 180.285156 272.644531 175.984375 273.632812 171.507812 C 274.945312 165.53125 275.3125 159.390625 274.8125 153.296875 C 274.144531 145.152344 272.179688 136.929688 269.230469 129.3125 C 267.6875 125.335938 265.5625 121.578125 263.425781 117.890625 C 257.3125 107.320312 250.449219 97.164062 243.523438 87.113281 C 237.800781 78.804688 231.964844 70.578125 226.035156 62.421875 C 225.140625 61.1875 224.242188 59.960938 223.339844 58.730469 C 222.675781 56.960938 218.390625 58.011719 217.226562 58.289062 C 210.574219 59.898438 204.164062 62.835938 198.003906 65.757812 C 196.25 66.59375 194.515625 67.457031 192.78125 68.335938 C 192.621094 68.109375 192.445312 67.890625 192.253906 67.683594 C 191.558594 66.933594 190.679688 66.40625 189.757812 65.988281 C 188.984375 65.632812 188.15625 65.367188 187.445312 64.890625 C 186.464844 64.246094 185.949219 62.984375 185.664062 61.886719 C 185.335938 60.625 185.242188 59.304688 184.804688 58.070312 C 183.949219 55.679688 181.714844 54.019531 179.742188 52.570312 C 177.765625 51.121094 175.671875 49.785156 173.996094 47.976562 C 173.125 47.03125 172.398438 45.953125 171.875 44.765625 C 171.25 43.339844 170.917969 41.804688 170.46875 40.3125 C 169.769531 37.945312 168.59375 35.074219 165.988281 34.328125 C 164.988281 34.039062 164.027344 33.632812 163.027344 33.351562 C 162.164062 33.113281 161.066406 32.839844 160.21875 33.257812 C 158.648438 34.039062 158.898438 36.195312 159.332031 37.558594 C 159.902344 39.359375 160.917969 41.027344 162.011719 42.5625 C 163.21875 44.257812 164.640625 45.789062 165.800781 47.523438 C 167.269531 49.71875 168.480469 52.082031 169.382812 54.558594 C 170.28125 57.027344 170.882812 59.605469 171.25 62.207031 C 171.648438 65.058594 171.683594 67.902344 171.757812 70.773438 C 171.789062 72.019531 172.058594 73.636719 173.3125 74.25 C 174.457031 74.8125 175.472656 73.898438 176.105469 73.015625 C 176.933594 71.859375 177.539062 70.605469 178.53125 69.566406 C 179.359375 68.703125 180.488281 67.902344 181.753906 68.101562 C 182.769531 68.269531 183.769531 68.855469 184.636719 69.382812 C 185.089844 69.65625 185.53125 69.957031 185.921875 70.3125 C 186.296875 70.644531 186.589844 71.058594 186.929688 71.421875 C 182.042969 74.171875 177.027344 76.980469 172.824219 80.726562 C 171.730469 81.699219 169.707031 83.410156 169.988281 85.105469 C 170.003906 85.171875 170.023438 85.238281 170.042969 85.304688 C 170.042969 85.316406 170.042969 85.324219 170.050781 85.335938 C 171.898438 90.984375 173.816406 96.613281 175.765625 102.230469 C 179.761719 113.773438 183.890625 125.273438 188.359375 136.640625 C 190.472656 142.027344 192.660156 147.394531 195.039062 152.675781 C 196.800781 156.582031 198.628906 160.53125 200.957031 164.144531 C 205.519531 171.210938 211.308594 177.820312 217.777344 183.195312 C 222.648438 187.238281 228.070312 190.535156 233.933594 192.917969 C 238.316406 194.703125 242.882812 195.871094 247.386719 197.296875 C 250.875 198.40625 254.4375 199.78125 256.949219 202.558594 C 258.257812 204 259.019531 205.695312 259.898438 207.410156 C 261.632812 210.796875 263.367188 214.171875 265.09375 217.558594 C 269.996094 227.121094 274.898438 236.6875 279.800781 246.253906 C 282.550781 251.621094 285.332031 256.972656 288.050781 262.359375 C 289.804688 265.832031 287.578125 269.46875 285.609375 272.328125 C 284.15625 274.429688 282.488281 276.15625 280.6875 277.953125 C 278.554688 280.089844 276.417969 282.238281 274.425781 284.507812 C 272.84375 286.308594 271.070312 288.28125 270.175781 290.542969 C 268.347656 295.160156 275.085938 294.09375 277.507812 293.558594 C 284.765625 291.957031 291.792969 288.875 298.492188 285.714844 C 304.894531 282.699219 311.191406 279.355469 317.21875 275.636719 C 320.5 273.613281 323.730469 271.484375 326.785156 269.136719 C 328.929688 267.488281 331.160156 265.71875 332.78125 263.515625 C 333.546875 262.5 334.488281 260.839844 333.421875 259.671875 Z M 186.257812 69.738281 C 185.855469 69.398438 185.417969 69.097656 184.960938 68.824219 C 184.097656 68.289062 183.128906 67.761719 182.128906 67.515625 C 181.0625 67.253906 179.980469 67.582031 179.101562 68.203125 C 178.054688 68.945312 177.246094 69.984375 176.558594 71.054688 C 176.191406 71.621094 175.878906 72.222656 175.476562 72.761719 C 175.132812 73.230469 174.632812 73.796875 173.992188 73.761719 C 173.351562 73.738281 172.910156 73.089844 172.703125 72.554688 C 172.417969 71.828125 172.417969 71.011719 172.417969 70.238281 C 172.417969 68.796875 172.382812 67.363281 172.289062 65.925781 C 172.125 63.316406 171.777344 60.714844 171.164062 58.164062 C 169.957031 53.152344 167.632812 48.523438 164.40625 44.511719 C 163.359375 43.210938 162.324219 41.949219 161.464844 40.507812 C 160.585938 39.03125 159.570312 37.21875 159.675781 35.441406 C 159.71875 34.792969 160.03125 34.011719 160.699219 33.804688 C 161.632812 33.511719 162.820312 33.980469 163.691406 34.273438 C 164.191406 34.441406 164.679688 34.621094 165.171875 34.789062 C 165.648438 34.949219 166.140625 35.046875 166.582031 35.292969 C 167.703125 35.914062 168.449219 37.0625 168.988281 38.191406 C 170.242188 40.816406 170.4375 43.820312 171.9375 46.34375 C 173.15625 48.398438 174.992188 49.953125 176.898438 51.347656 C 178.847656 52.777344 180.902344 54.089844 182.582031 55.847656 C 183.542969 56.847656 184.148438 57.9375 184.46875 59.292969 C 184.757812 60.519531 184.871094 61.800781 185.316406 62.984375 C 185.691406 63.972656 186.277344 64.953125 187.183594 65.527344 C 187.882812 65.964844 188.683594 66.234375 189.4375 66.582031 C 190.359375 67 191.226562 67.523438 191.90625 68.289062 C 192.304688 68.742188 192.527344 69.25 192.832031 69.765625 C 192.945312 69.957031 193.09375 70.105469 193.292969 70.210938 C 193.773438 70.464844 194.386719 70.40625 194.902344 70.339844 C 195.632812 70.246094 196.363281 70.078125 197.082031 69.929688 C 198.476562 69.652344 200.25 69.25 201.578125 69.992188 C 202.191406 70.339844 202.542969 70.917969 202.75 71.574219 C 200.855469 72.609375 198.949219 73.628906 197.027344 74.617188 C 194.859375 73.863281 192.53125 73.722656 190.386719 72.902344 C 189.230469 72.460938 188.175781 71.789062 187.324219 70.878906 C 186.957031 70.5 186.664062 70.078125 186.257812 69.738281 Z M 171.363281 83.25 C 172.992188 81.039062 175.476562 79.375 177.710938 77.839844 C 180.113281 76.199219 182.601562 74.691406 185.121094 73.25 C 185.898438 72.808594 186.671875 72.355469 187.449219 71.921875 C 189.164062 73.402344 191.351562 73.984375 193.546875 74.4375 C 194.433594 74.617188 195.320312 74.796875 196.1875 75.058594 C 191.144531 77.632812 185.984375 80.019531 180.695312 81.953125 C 179.253906 82.480469 177.785156 82.996094 176.277344 83.28125 C 175.839844 83.367188 175.363281 83.449219 174.917969 83.410156 C 174.625 83.382812 174.445312 83.320312 174.378906 83.195312 C 174.183594 82.808594 173.609375 83.148438 173.804688 83.527344 C 174.117188 84.148438 175.019531 84.109375 175.597656 84.054688 C 176.84375 83.9375 178.078125 83.546875 179.265625 83.15625 C 183.136719 81.878906 186.878906 80.191406 190.566406 78.46875 C 192.761719 77.441406 194.933594 76.378906 197.089844 75.292969 C 197.128906 75.285156 197.160156 75.265625 197.1875 75.238281 C 199.4375 74.097656 201.671875 72.921875 203.886719 71.714844 C 207.640625 69.664062 211.382812 67.535156 214.921875 65.132812 C 216.171875 64.285156 217.445312 63.402344 218.53125 62.347656 C 219.003906 61.886719 219.820312 61.105469 219.464844 60.371094 C 219.277344 59.984375 218.707031 60.328125 218.890625 60.707031 C 218.890625 60.707031 218.871094 60.875 218.730469 61.101562 C 218.53125 61.425781 218.238281 61.703125 217.964844 61.960938 C 217.042969 62.835938 215.996094 63.582031 214.949219 64.296875 C 211.675781 66.5625 208.214844 68.550781 204.738281 70.480469 C 204.277344 70.734375 203.804688 70.992188 203.34375 71.246094 C 203.117188 70.585938 202.746094 69.984375 202.164062 69.570312 C 201.550781 69.136719 200.796875 68.96875 200.058594 68.929688 C 198.4375 68.84375 196.84375 69.332031 195.261719 69.605469 C 194.765625 69.691406 194.128906 69.816406 193.652344 69.636719 C 193.425781 69.550781 193.386719 69.363281 193.253906 69.097656 C 193.21875 69.03125 193.171875 68.96875 193.140625 68.910156 C 199.523438 65.652344 206.074219 62.609375 212.855469 60.292969 C 215.152344 59.511719 217.539062 58.722656 219.960938 58.457031 C 220.714844 58.378906 222.546875 58.144531 222.761719 59.152344 C 223.035156 60.445312 220.964844 62.136719 220.113281 62.890625 C 217.804688 64.9375 215.210938 66.667969 212.609375 68.316406 C 205.734375 72.675781 198.457031 76.453125 191.039062 79.796875 C 187.65625 81.324219 184.222656 82.769531 180.707031 83.976562 C 178.292969 84.808594 175.738281 85.679688 173.171875 85.859375 C 172.53125 85.90625 171.738281 85.953125 171.144531 85.632812 C 170.1875 85.144531 170.863281 83.921875 171.363281 83.25 Z M 261.140625 122.265625 C 261.125 122.238281 261.132812 122.257812 261.140625 122.285156 C 261.121094 122.304688 261.097656 122.335938 261.078125 122.359375 C 261.027344 122.417969 260.980469 122.476562 260.925781 122.539062 C 260.613281 122.898438 260.257812 123.226562 259.890625 123.53125 C 258.519531 124.679688 256.878906 125.5 255.203125 126.09375 C 252.226562 127.148438 249.046875 127.539062 245.898438 127.558594 C 242.238281 127.585938 238.613281 126.996094 234.980469 126.601562 C 233.164062 126.410156 231.339844 126.242188 229.511719 126.242188 C 227.863281 126.242188 226.230469 126.457031 224.582031 126.390625 C 221.113281 126.253906 217.578125 125.382812 214.644531 123.472656 C 213.078125 122.449219 211.855469 121.054688 210.453125 119.835938 C 209.261719 118.792969 207.980469 117.832031 206.601562 117.050781 C 204.238281 115.730469 201.644531 115.121094 198.957031 115.023438 C 197.496094 114.96875 196.027344 115.035156 194.566406 115.128906 C 193.445312 115.203125 192.332031 115.347656 191.210938 115.261719 C 190.078125 115.175781 188.945312 114.976562 187.851562 114.667969 C 186.65625 114.339844 185.417969 113.878906 184.460938 113.066406 C 184.175781 112.824219 183.9375 112.550781 183.734375 112.246094 C 183.730469 112.230469 183.714844 112.210938 183.707031 112.199219 C 183.664062 112.097656 183.617188 111.996094 183.570312 111.898438 C 183.617188 111.722656 183.976562 111.53125 184.097656 111.464844 C 184.554688 111.203125 185.0625 111.023438 185.5625 110.871094 C 186.710938 110.523438 187.972656 110.25 189.171875 110.300781 C 190.417969 110.355469 191.6875 110.703125 192.851562 111.125 C 193.960938 111.523438 195.027344 112.023438 196.234375 111.722656 C 197.503906 111.410156 197.902344 110.308594 198.535156 109.316406 C 198.894531 108.753906 199.296875 108.558594 199.964844 108.59375 C 200.5625 108.628906 201.171875 108.648438 201.617188 108.171875 C 202.324219 107.425781 202.0625 106.210938 202.085938 105.28125 C 202.089844 104.789062 202.15625 104.109375 202.664062 103.867188 C 203.21875 103.601562 203.910156 104.09375 204.324219 104.429688 C 204.914062 104.914062 205.386719 105.53125 205.886719 106.097656 C 206.453125 106.738281 207.019531 107.386719 207.585938 108.027344 C 208.148438 108.660156 208.695312 109.316406 209.273438 109.921875 C 209.734375 110.402344 210.261719 110.863281 210.894531 111.082031 C 211.960938 111.449219 213.15625 110.921875 213.476562 109.816406 C 213.835938 108.582031 213.25 107.078125 212.804688 105.9375 C 210.886719 101.039062 206.71875 97.425781 204.851562 92.507812 C 203.710938 89.515625 203.710938 86.277344 203.160156 83.160156 C 202.757812 80.914062 202.039062 78.589844 200.492188 76.847656 C 200.308594 76.648438 200.117188 76.460938 199.917969 76.28125 C 201.0625 75.691406 202.199219 75.089844 203.332031 74.476562 C 203.964844 77.667969 204.84375 80.746094 206.492188 83.582031 C 208.148438 86.425781 210.175781 89.042969 211.882812 91.859375 C 213.648438 94.78125 215.230469 97.828125 216.609375 100.949219 C 217.886719 103.828125 219.019531 106.851562 220.964844 109.359375 C 222.835938 111.777344 225.410156 113.371094 228.082031 114.761719 C 231.070312 116.308594 234.167969 117.617188 237.386719 118.59375 C 242.542969 120.160156 247.894531 120.867188 253.261719 121.148438 C 255.015625 121.242188 256.777344 121.269531 258.523438 121.421875 C 259.085938 121.476562 259.652344 121.535156 260.191406 121.683594 C 260.546875 121.777344 260.867188 121.882812 261.074219 122.128906 C 261.03125 122.105469 261.121094 122.210938 261.140625 122.265625 Z M 332.40625 262.921875 C 330.765625 265.3125 328.269531 267.207031 325.984375 268.933594 C 322.929688 271.246094 319.714844 273.355469 316.445312 275.351562 C 310.457031 279.015625 304.207031 282.320312 297.851562 285.300781 C 291.160156 288.441406 284.117188 291.542969 276.847656 293.039062 C 275.367188 293.347656 272.039062 294.207031 270.8125 292.8125 C 269.625 291.46875 271.890625 288.746094 272.652344 287.726562 C 275.945312 283.308594 280.136719 279.6875 283.871094 275.671875 C 286.03125 273.347656 288.117188 270.304688 289.03125 267.238281 C 289.59375 265.378906 289.433594 263.621094 288.550781 261.898438 C 287.558594 259.957031 286.566406 258.015625 285.5625 256.074219 C 281.042969 247.246094 276.527344 238.429688 272.003906 229.605469 C 268.050781 221.882812 264.09375 214.160156 260.132812 206.441406 C 259.21875 204.65625 258.363281 203.011719 256.902344 201.570312 C 254.347656 199.039062 250.914062 197.730469 247.554688 196.664062 C 243.089844 195.25 238.554688 194.085938 234.207031 192.324219 C 228.109375 189.863281 222.496094 186.378906 217.5 182.113281 C 214.25 179.335938 211.269531 176.265625 208.5 173.007812 C 205.898438 169.957031 203.359375 166.761719 201.230469 163.355469 C 198.917969 159.652344 197.074219 155.632812 195.292969 151.648438 C 190.320312 140.527344 186.058594 129.078125 181.90625 117.625 C 178.53125 108.304688 175.277344 98.933594 172.136719 89.535156 C 171.777344 88.46875 171.429688 87.398438 171.078125 86.332031 C 171.167969 86.367188 171.269531 86.398438 171.375 86.425781 C 173.417969 86.933594 175.878906 86.136719 177.820312 85.585938 C 181.308594 84.589844 184.703125 83.242188 188.042969 81.828125 C 191.832031 80.21875 195.582031 78.46875 199.261719 76.605469 C 200.808594 77.921875 201.65625 79.8125 202.164062 81.753906 C 202.953125 84.789062 202.90625 87.980469 203.671875 91.023438 C 204.992188 96.230469 209.082031 99.9375 211.460938 104.601562 C 212.0625 105.777344 212.570312 107.046875 212.824219 108.347656 C 212.949219 109.015625 212.988281 109.882812 212.363281 110.316406 C 211.84375 110.675781 211.183594 110.554688 210.675781 110.25 C 210.027344 109.855469 209.535156 109.234375 209.035156 108.671875 C 208.46875 108.03125 207.902344 107.386719 207.332031 106.746094 C 206.765625 106.105469 206.199219 105.457031 205.632812 104.816406 C 205.207031 104.335938 204.765625 103.875 204.210938 103.535156 C 203.265625 102.953125 202.070312 102.972656 201.605469 104.132812 C 201.203125 105.136719 201.617188 106.222656 201.363281 107.246094 C 201.191406 107.933594 200.628906 107.964844 200.015625 107.925781 C 199.4375 107.894531 198.902344 107.960938 198.457031 108.351562 C 197.59375 109.121094 197.46875 110.53125 196.320312 110.988281 C 195.132812 111.464844 193.960938 110.789062 192.867188 110.410156 C 191.699219 110.007812 190.453125 109.695312 189.21875 109.628906 C 188.058594 109.566406 186.832031 109.816406 185.714844 110.121094 C 184.875 110.355469 183.789062 110.648438 183.167969 111.316406 C 183.003906 111.496094 182.894531 111.710938 182.894531 111.945312 C 182.894531 111.949219 182.894531 111.964844 182.894531 111.972656 C 182.886719 112.019531 182.894531 112.070312 182.910156 112.125 C 182.910156 112.132812 182.910156 112.136719 182.910156 112.136719 C 182.910156 112.144531 182.910156 112.144531 182.914062 112.144531 C 182.914062 112.152344 182.914062 112.152344 182.914062 112.15625 C 182.929688 112.183594 182.941406 112.203125 182.949219 112.226562 C 182.957031 112.238281 182.960938 112.257812 182.96875 112.265625 C 182.988281 112.304688 183.015625 112.351562 183.035156 112.390625 C 187.015625 122.242188 191.078125 132.0625 195.242188 141.835938 C 197.355469 146.800781 199.484375 151.769531 201.757812 156.660156 C 202.445312 158.136719 203.132812 159.625 203.933594 161.046875 C 204.457031 161.988281 205.121094 162.855469 205.753906 163.730469 C 207.085938 165.566406 208.472656 167.367188 209.929688 169.109375 C 214.738281 174.878906 220.292969 180.0625 226.730469 183.960938 C 231.179688 186.660156 235.972656 188.613281 240.902344 190.210938 C 243.117188 190.921875 245.378906 191.816406 247.652344 192.285156 C 251.800781 193.148438 256.175781 192.152344 259.585938 189.636719 C 261.140625 188.488281 262.460938 187.03125 263.441406 185.363281 C 264.226562 184.015625 264.675781 182.566406 265.148438 181.089844 C 265.761719 179.148438 266.449219 177.234375 267.070312 175.296875 C 268.65625 170.363281 269.789062 165.316406 270.097656 160.132812 C 270.542969 152.507812 269.335938 144.867188 267.269531 137.542969 C 266.617188 135.21875 265.867188 132.929688 265.0625 130.65625 C 264.046875 127.835938 262.914062 125.054688 261.820312 122.269531 C 261.8125 122.242188 261.804688 122.222656 261.792969 122.203125 C 261.785156 122.191406 261.785156 122.183594 261.78125 122.171875 C 261.578125 121.402344 260.765625 121.109375 260.039062 120.957031 C 258.636719 120.660156 257.164062 120.648438 255.742188 120.589844 C 250.789062 120.367188 245.867188 120 241.023438 118.875 C 237.792969 118.125 234.632812 117.085938 231.605469 115.734375 C 230.105469 115.070312 228.628906 114.328125 227.191406 113.53125 C 225.855469 112.792969 224.546875 111.976562 223.394531 110.976562 C 220.96875 108.875 219.539062 106.011719 218.265625 103.121094 C 216.910156 100.042969 215.542969 96.992188 213.910156 94.046875 C 212.269531 91.097656 210.382812 88.339844 208.507812 85.539062 C 207.601562 84.183594 206.738281 82.800781 206.046875 81.320312 C 205.3125 79.757812 204.8125 78.101562 204.414062 76.433594 C 204.230469 75.671875 204.070312 74.898438 203.925781 74.128906 C 206.378906 72.796875 208.800781 71.40625 211.175781 69.957031 C 214.109375 68.167969 217.023438 66.28125 219.6875 64.089844 C 220.960938 63.035156 222.886719 61.574219 223.328125 59.839844 C 226.617188 64.3125 229.851562 68.816406 233.066406 73.335938 C 240.109375 83.242188 247.039062 93.234375 253.667969 103.421875 C 256.8125 108.253906 259.890625 113.125 262.78125 118.113281 C 264.914062 121.789062 267.0625 125.546875 268.589844 129.527344 C 273.71875 142.890625 276.074219 157.847656 272.824219 171.941406 C 271.8125 176.332031 270.257812 180.542969 268.828125 184.808594 C 267.734375 188.058594 266.675781 191.484375 266.894531 194.960938 C 267.027344 197.078125 267.683594 198.972656 268.644531 200.835938 C 270.089844 203.632812 271.53125 206.429688 272.976562 209.226562 C 277.773438 218.503906 282.570312 227.785156 287.363281 237.070312 C 290.761719 243.636719 294.15625 250.199219 297.542969 256.765625 C 298.011719 257.675781 298.496094 258.550781 299.277344 259.238281 C 301.578125 261.257812 305.074219 261.433594 307.980469 261.472656 C 313.335938 261.546875 318.601562 260.0625 323.902344 259.488281 C 326.371094 259.222656 329.160156 258.84375 331.601562 259.46875 C 333.613281 259.992188 333.421875 261.453125 332.40625 262.921875 Z M 328.917969 262.582031 C 328.542969 263.769531 327.609375 264.761719 326.75 265.625 C 325.351562 267.019531 323.777344 268.234375 322.1875 269.394531 C 318.304688 272.226562 314.171875 274.714844 309.984375 277.066406 C 305.300781 279.695312 300.511719 282.136719 295.628906 284.375 C 291.441406 286.296875 287.171875 288.113281 282.769531 289.480469 C 281.230469 289.960938 279.660156 290.394531 278.0625 290.628906 C 277.054688 290.777344 275.917969 290.910156 274.945312 290.5625 C 274.546875 290.421875 274.71875 289.773438 275.125 289.921875 C 276.21875 290.308594 277.527344 290.074219 278.628906 289.867188 C 280.496094 289.519531 282.324219 288.960938 284.117188 288.347656 C 293.507812 285.15625 302.539062 280.582031 311.125 275.652344 C 315.070312 273.386719 318.972656 270.992188 322.617188 268.253906 C 323.957031 267.246094 325.277344 266.179688 326.449219 264.976562 C 327.164062 264.242188 327.964844 263.394531 328.277344 262.402344 C 328.40625 261.992188 329.050781 262.167969 328.917969 262.582031 Z M 291.082031 267.960938 C 291.847656 268.082031 292.734375 267.761719 293.449219 267.519531 C 294.5625 267.144531 295.640625 266.660156 296.691406 266.117188 C 297.710938 265.589844 298.71875 265.015625 299.652344 264.347656 C 300.238281 263.9375 300.964844 263.441406 301.292969 262.773438 C 301.476562 262.386719 302.058594 262.726562 301.867188 263.109375 C 301.503906 263.847656 300.71875 264.394531 300.070312 264.863281 C 299.078125 265.578125 298.003906 266.191406 296.910156 266.753906 C 295.816406 267.304688 294.6875 267.8125 293.519531 268.195312 C 292.695312 268.46875 291.773438 268.742188 290.898438 268.601562 C 290.480469 268.535156 290.660156 267.894531 291.082031 267.960938 Z M 235.640625 110.941406 C 235.1875 110.46875 234.359375 110.289062 233.828125 110.734375 C 233.507812 111.003906 233.511719 111.390625 233.300781 111.710938 C 233.03125 112.113281 232.484375 111.976562 232.105469 111.851562 C 231.332031 111.589844 230.230469 111.171875 229.65625 112.042969 C 229.070312 112.945312 230.097656 113.886719 230.75 114.375 C 231.796875 115.109375 233.125 115.488281 234.339844 115.84375 C 235.28125 116.117188 236.648438 116.617188 237.234375 115.496094 C 237.695312 114.613281 236.792969 114.082031 236.527344 113.347656 C 236.242188 112.53125 236.273438 111.605469 235.640625 110.941406 Z M 236.488281 115.382812 C 235.992188 115.789062 234.839844 115.296875 234.300781 115.136719 C 233.207031 114.808594 232.03125 114.460938 231.089844 113.800781 C 230.679688 113.5 229.5625 112.417969 230.617188 112.191406 C 231.277344 112.050781 231.953125 112.597656 232.617188 112.644531 C 233.265625 112.683594 233.78125 112.378906 234.007812 111.777344 C 234.113281 111.492188 234.171875 111.191406 234.527344 111.15625 C 234.867188 111.125 235.152344 111.34375 235.328125 111.617188 C 235.707031 112.21875 235.6875 112.992188 235.941406 113.640625 C 236.0625 113.945312 236.234375 114.199219 236.441406 114.460938 C 236.667969 114.753906 236.839844 115.089844 236.488281 115.382812 Z M 232.773438 108.925781 C 233.460938 108.375 233.597656 107.34375 233.21875 106.578125 C 233.121094 106.371094 232.960938 106.195312 232.871094 105.984375 C 232.773438 105.75 232.765625 105.507812 232.566406 105.316406 C 232.378906 105.136719 232.113281 105.023438 231.871094 104.929688 C 231.632812 104.84375 231.363281 104.808594 231.113281 104.875 C 230.617188 105.003906 230.296875 105.441406 230.125 105.898438 C 230.019531 106.164062 229.9375 106.449219 229.945312 106.738281 C 229.957031 107.417969 230.003906 108.261719 230.472656 108.800781 C 231.066406 109.433594 232.113281 109.453125 232.773438 108.925781 Z M 230.613281 106.585938 C 230.605469 106.636719 230.632812 106.523438 230.644531 106.492188 C 230.671875 106.398438 230.691406 106.296875 230.726562 106.203125 C 230.777344 106.03125 230.859375 105.851562 230.984375 105.714844 C 231.238281 105.449219 231.523438 105.484375 231.839844 105.636719 C 232 105.714844 232.113281 105.757812 232.160156 105.9375 C 232.210938 106.128906 232.277344 106.3125 232.378906 106.484375 C 232.550781 106.777344 232.738281 107.039062 232.757812 107.390625 C 232.773438 107.679688 232.707031 107.980469 232.53125 108.214844 C 232.164062 108.71875 231.371094 108.773438 230.945312 108.320312 C 230.929688 108.300781 230.917969 108.285156 230.886719 108.226562 C 230.851562 108.171875 230.84375 108.144531 230.832031 108.113281 C 230.777344 107.980469 230.746094 107.839844 230.710938 107.699219 C 230.664062 107.464844 230.636719 107.246094 230.625 106.992188 C 230.617188 106.863281 230.597656 106.71875 230.613281 106.585938 Z M 225.808594 107.210938 C 225.621094 106.863281 225.421875 106.503906 225.148438 106.21875 C 224.855469 105.910156 224.449219 105.761719 224.027344 105.835938 C 223.703125 105.890625 223.394531 106.117188 223.179688 106.371094 C 222.90625 106.691406 222.90625 107.089844 223.15625 107.425781 C 223.234375 107.53125 223.316406 107.640625 223.402344 107.738281 C 223.78125 108.21875 224.175781 108.726562 224.65625 109.101562 C 224.988281 109.355469 225.390625 109.574219 225.824219 109.433594 C 226.28125 109.289062 226.46875 108.847656 226.34375 108.398438 C 226.222656 108 226.007812 107.59375 225.808594 107.210938 Z M 225.707031 108.746094 C 225.722656 108.71875 225.675781 108.78125 225.695312 108.765625 C 225.714844 108.753906 225.617188 108.8125 225.636719 108.800781 C 225.589844 108.820312 225.550781 108.820312 225.488281 108.8125 C 225.363281 108.792969 225.230469 108.707031 225.121094 108.628906 C 224.761719 108.347656 224.460938 107.992188 224.175781 107.640625 C 224.109375 107.558594 224.046875 107.484375 223.980469 107.40625 C 223.953125 107.371094 223.929688 107.339844 223.902344 107.296875 C 223.886719 107.277344 223.875 107.265625 223.863281 107.246094 C 223.863281 107.246094 223.863281 107.246094 223.855469 107.238281 C 223.792969 107.164062 223.734375 107.089844 223.679688 107.003906 C 223.667969 106.984375 223.65625 106.957031 223.648438 106.9375 C 223.648438 106.9375 223.621094 106.871094 223.632812 106.917969 C 223.628906 106.90625 223.628906 106.90625 223.628906 106.898438 C 223.628906 106.898438 223.632812 106.898438 223.632812 106.890625 C 223.632812 106.882812 223.640625 106.871094 223.648438 106.859375 C 223.65625 106.84375 223.667969 106.824219 223.675781 106.8125 C 223.648438 106.851562 223.679688 106.8125 223.6875 106.804688 C 223.726562 106.757812 223.773438 106.71875 223.820312 106.679688 C 223.988281 106.53125 224.167969 106.4375 224.386719 106.492188 C 224.636719 106.550781 224.789062 106.792969 224.914062 106.984375 C 225.101562 107.273438 225.261719 107.574219 225.414062 107.878906 C 225.488281 108.039062 225.5625 108.199219 225.628906 108.367188 C 225.65625 108.480469 225.742188 108.667969 225.707031 108.746094 Z M 198.667969 100.214844 C 199.28125 100.691406 200.015625 100.949219 200.765625 101.125 C 201.363281 101.25 201.984375 101.296875 202.605469 101.285156 C 202.632812 101.285156 202.65625 101.285156 202.683594 101.285156 C 202.703125 101.3125 202.890625 101.398438 202.890625 101.390625 C 202.957031 101.417969 203.019531 101.453125 203.085938 101.476562 C 203.351562 101.589844 203.625 101.699219 203.910156 101.746094 C 204.351562 101.8125 204.800781 101.699219 204.984375 101.257812 C 205.097656 100.984375 205.066406 100.691406 204.972656 100.417969 C 204.914062 100.242188 204.824219 100.078125 204.777344 99.894531 C 204.726562 99.703125 204.726562 99.496094 204.691406 99.296875 C 204.59375 98.621094 204.160156 98.234375 203.523438 98.039062 C 202.824219 97.832031 202.21875 97.875 201.570312 98.199219 C 201.230469 98.375 200.917969 98.496094 200.523438 98.441406 C 200.148438 98.386719 199.796875 98.242188 199.441406 98.113281 C 198.902344 97.925781 198.195312 97.867188 197.914062 98.488281 C 197.621094 99.148438 198.175781 99.835938 198.667969 100.214844 Z M 199.703125 98.914062 C 200.222656 99.089844 200.796875 99.207031 201.335938 99.035156 C 201.878906 98.863281 202.257812 98.5 202.863281 98.582031 C 203.34375 98.648438 203.925781 98.78125 204.03125 99.328125 C 204.078125 99.574219 204.070312 99.828125 204.140625 100.078125 C 204.207031 100.335938 204.417969 100.625 204.398438 100.898438 C 204.371094 101.21875 203.972656 101.085938 203.773438 101.023438 C 203.363281 100.898438 203.003906 100.605469 202.578125 100.609375 C 202.03125 100.625 201.476562 100.589844 200.945312 100.476562 C 200.421875 100.355469 199.917969 100.203125 199.457031 99.9375 C 199.101562 99.730469 198.523438 99.347656 198.523438 98.875 C 198.507812 98.359375 199.484375 98.839844 199.703125 98.914062 Z M 165.601562 49.832031 C 165.019531 48.964844 164.40625 48.078125 163.625 47.371094 C 162.726562 46.589844 161.511719 45.867188 160.265625 46.089844 C 159.789062 46.167969 159.371094 46.503906 159.476562 47.03125 C 159.597656 47.609375 160.199219 47.898438 160.617188 48.246094 C 160.871094 48.453125 161.199219 48.765625 161.125 49.125 C 161.058594 49.445312 160.699219 49.621094 160.4375 49.773438 C 159.949219 50.066406 159.46875 50.425781 159.222656 50.953125 C 158.71875 52.027344 159.53125 53.042969 160.65625 52.984375 C 161.3125 52.949219 161.863281 52.617188 162.484375 52.457031 C 163.132812 52.289062 163.824219 52.484375 164.21875 53.042969 C 164.59375 53.578125 164.359375 54.230469 164.492188 54.824219 C 164.605469 55.339844 164.964844 55.714844 165.453125 55.886719 C 166.519531 56.261719 167.472656 55.398438 167.582031 54.359375 C 167.65625 53.617188 167.441406 52.890625 167.082031 52.25 C 166.613281 51.433594 166.128906 50.621094 165.601562 49.832031 Z M 166.273438 55.273438 C 165.820312 55.445312 165.265625 55.199219 165.148438 54.726562 C 165.007812 54.164062 165.195312 53.589844 164.964844 53.042969 C 164.640625 52.257812 163.792969 51.730469 162.945312 51.734375 C 162.371094 51.734375 161.859375 51.988281 161.332031 52.175781 C 160.871094 52.335938 160.089844 52.523438 159.804688 51.96875 C 159.25 50.894531 161.113281 50.347656 161.578125 49.726562 C 161.878906 49.324219 161.863281 48.820312 161.625 48.390625 C 161.339844 47.878906 160.824219 47.628906 160.398438 47.257812 C 160.332031 47.195312 160.109375 47.023438 160.132812 46.914062 C 160.171875 46.734375 160.425781 46.75 160.570312 46.734375 C 160.859375 46.714844 161.152344 46.761719 161.425781 46.84375 C 162.078125 47.03125 162.652344 47.417969 163.160156 47.855469 C 164.332031 48.917969 165.1875 50.359375 165.988281 51.707031 C 166.226562 52.109375 166.5 52.515625 166.6875 52.945312 C 166.988281 53.605469 167.15625 54.925781 166.273438 55.273438 Z M 154.433594 42.214844 C 154.816406 42.257812 155.195312 42.230469 155.574219 42.242188 C 156.027344 42.261719 156.421875 42.390625 156.828125 42.589844 C 157.488281 42.925781 158.164062 43.339844 158.929688 43.25 C 159.5625 43.179688 160.0625 42.683594 159.75 42.03125 C 159.625 41.761719 159.410156 41.582031 159.195312 41.382812 C 159.023438 41.214844 158.898438 41.015625 158.777344 40.816406 C 158.503906 40.359375 158.242188 39.902344 157.84375 39.539062 C 157.449219 39.179688 157.0625 38.964844 156.550781 38.851562 C 155.941406 38.71875 155.320312 38.59375 154.703125 38.546875 C 154.019531 38.511719 153.347656 38.738281 153.015625 39.375 C 152.714844 39.945312 152.585938 40.742188 152.902344 41.335938 C 153.207031 41.902344 153.835938 42.148438 154.433594 42.214844 Z M 153.433594 40.242188 C 153.496094 39.953125 153.585938 39.625 153.820312 39.433594 C 154.074219 39.226562 154.410156 39.207031 154.722656 39.21875 C 155.140625 39.253906 155.554688 39.332031 155.96875 39.417969 C 156.230469 39.472656 156.554688 39.492188 156.800781 39.601562 C 157.601562 39.941406 157.9375 40.789062 158.398438 41.449219 C 158.496094 41.589844 158.605469 41.730469 158.722656 41.851562 C 158.871094 41.996094 159.152344 42.164062 159.191406 42.390625 C 159.230469 42.644531 158.761719 42.625 158.605469 42.605469 C 158.277344 42.570312 157.964844 42.4375 157.667969 42.285156 C 157.144531 42.015625 156.628906 41.710938 156.035156 41.621094 C 155.433594 41.535156 154.816406 41.65625 154.226562 41.507812 C 153.585938 41.347656 153.308594 40.882812 153.433594 40.242188 Z M 163.8125 30.300781 C 164.011719 30.589844 164.21875 30.949219 164.578125 31.042969 C 164.988281 31.148438 165.3125 30.824219 165.414062 30.460938 C 165.46875 30.28125 165.46875 30.082031 165.480469 29.894531 C 165.5 29.660156 165.519531 29.425781 165.535156 29.1875 C 165.558594 28.773438 165.558594 28.332031 165.414062 27.933594 C 165.167969 27.257812 164.472656 26.644531 163.71875 26.925781 C 163.390625 27.042969 163.113281 27.296875 163.019531 27.636719 C 162.980469 27.792969 162.984375 27.957031 163 28.113281 C 163.078125 28.894531 163.367188 29.648438 163.8125 30.300781 Z M 163.679688 27.773438 C 163.753906 27.613281 163.953125 27.511719 164.121094 27.523438 C 164.3125 27.53125 164.492188 27.664062 164.613281 27.820312 C 164.988281 28.304688 164.886719 29 164.839844 29.574219 C 164.828125 29.761719 164.820312 29.949219 164.792969 30.136719 C 164.78125 30.214844 164.773438 30.308594 164.726562 30.382812 C 164.726562 30.382812 164.761719 30.414062 164.707031 30.382812 C 164.71875 30.386719 164.640625 30.316406 164.625 30.300781 C 164.527344 30.195312 164.453125 30.074219 164.371094 29.953125 C 164.046875 29.480469 163.820312 28.953125 163.707031 28.394531 C 163.671875 28.238281 163.664062 28.164062 163.652344 27.984375 C 163.660156 27.90625 163.652344 27.839844 163.679688 27.773438 Z M 171.328125 38.210938 C 171.464844 38.820312 171.523438 39.433594 171.476562 40.0625 C 171.429688 40.660156 171.46875 41.15625 171.75 41.703125 C 171.96875 42.144531 172.316406 42.496094 172.789062 42.617188 C 172.835938 42.644531 172.898438 42.671875 172.96875 42.664062 C 173.042969 42.671875 173.097656 42.65625 173.144531 42.628906 C 173.523438 42.550781 173.769531 42.269531 173.746094 41.835938 C 173.71875 41.394531 173.511719 40.988281 173.496094 40.546875 C 173.46875 39.695312 173.457031 38.839844 173.4375 37.976562 C 173.425781 37.304688 173.398438 36.582031 173.058594 35.980469 C 172.785156 35.496094 172.164062 35.066406 171.609375 35.355469 C 171.101562 35.613281 171.035156 36.269531 171.0625 36.777344 C 171.089844 37.269531 171.230469 37.738281 171.328125 38.210938 Z M 171.851562 36.007812 C 172.042969 35.808594 172.332031 36.089844 172.4375 36.25 C 172.738281 36.695312 172.75 37.3125 172.765625 37.824219 C 172.785156 38.457031 172.789062 39.09375 172.808594 39.71875 C 172.824219 40.242188 172.804688 40.753906 172.9375 41.261719 C 172.984375 41.441406 173.050781 41.621094 173.070312 41.804688 C 173.089844 41.96875 173.105469 41.988281 172.964844 41.996094 C 172.636719 41.964844 172.410156 41.550781 172.289062 41.289062 C 172.148438 40.980469 172.082031 40.667969 172.117188 40.335938 C 172.214844 39.398438 172.089844 38.527344 171.875 37.609375 C 171.796875 37.265625 171.714844 36.917969 171.722656 36.5625 C 171.730469 36.402344 171.722656 36.136719 171.851562 36.007812 Z M 186.203125 76.3125 C 186.53125 76.367188 186.863281 76.394531 187.195312 76.425781 C 187.835938 76.488281 188.449219 76.578125 189.019531 76.90625 C 189.292969 77.0625 189.558594 77.199219 189.878906 77.226562 C 190.210938 77.246094 190.546875 77.167969 190.84375 77.027344 C 191.351562 76.792969 191.734375 76.265625 191.566406 75.683594 C 191.398438 75.097656 190.820312 75.050781 190.304688 75.03125 C 190.070312 75.023438 190.039062 75.019531 189.90625 74.878906 C 189.757812 74.71875 189.617188 74.558594 189.453125 74.410156 C 189.125 74.125 188.769531 73.96875 188.359375 73.863281 C 187.863281 73.738281 187.34375 73.636719 186.832031 73.710938 C 186.289062 73.816406 185.785156 74.105469 185.464844 74.5625 C 185.164062 74.996094 185.035156 75.660156 185.476562 76.046875 C 185.667969 76.21875 185.941406 76.273438 186.203125 76.3125 Z M 185.898438 75.132812 C 186.078125 74.675781 186.550781 74.4375 187.003906 74.351562 C 187.316406 74.304688 187.664062 74.390625 187.964844 74.457031 C 188.15625 74.496094 188.359375 74.539062 188.542969 74.609375 C 188.882812 74.746094 189.144531 75.042969 189.390625 75.3125 C 189.617188 75.566406 189.839844 75.664062 190.183594 75.691406 C 190.445312 75.710938 191.09375 75.632812 190.90625 76.105469 C 190.730469 76.535156 190 76.652344 189.632812 76.488281 C 189.417969 76.394531 189.230469 76.253906 189.019531 76.152344 C 188.792969 76.050781 188.558594 75.972656 188.316406 75.917969 C 187.835938 75.8125 187.34375 75.777344 186.855469 75.726562 C 186.589844 75.699219 186.289062 75.691406 186.035156 75.597656 C 185.816406 75.519531 185.816406 75.324219 185.898438 75.132812 Z M 162.238281 56.308594 C 162.492188 56.128906 162.652344 55.8125 162.765625 55.535156 C 162.886719 55.238281 162.945312 54.878906 162.792969 54.585938 C 162.707031 54.425781 162.539062 54.304688 162.386719 54.21875 C 162.210938 54.125 162.019531 54.058594 161.824219 54.023438 C 161.636719 53.992188 161.425781 53.972656 161.246094 54.03125 C 161.117188 54.078125 161.019531 54.144531 160.945312 54.257812 C 160.898438 54.332031 160.890625 54.410156 160.882812 54.492188 C 160.851562 54.886719 160.816406 55.3125 160.90625 55.707031 C 161.050781 56.242188 161.738281 56.660156 162.238281 56.308594 Z M 161.863281 55.761719 C 161.863281 55.761719 161.859375 55.765625 161.859375 55.765625 C 161.859375 55.765625 161.859375 55.765625 161.859375 55.761719 C 161.859375 55.761719 161.859375 55.761719 161.863281 55.761719 Z M 161.863281 55.761719 Z M 161.945312 54.746094 C 161.953125 54.746094 161.957031 54.753906 161.964844 54.753906 C 161.980469 54.757812 162 54.765625 162.011719 54.773438 C 162.058594 54.792969 162.105469 54.820312 162.144531 54.847656 C 162.152344 54.851562 162.164062 54.859375 162.179688 54.867188 C 162.183594 54.871094 162.191406 54.871094 162.191406 54.878906 C 162.199219 54.886719 162.207031 54.894531 162.210938 54.898438 C 162.210938 54.90625 162.21875 54.917969 162.21875 54.933594 C 162.21875 54.9375 162.21875 54.945312 162.21875 54.945312 C 162.21875 54.960938 162.226562 55.027344 162.21875 55.054688 C 162.210938 55.078125 162.207031 55.105469 162.199219 55.132812 C 162.183594 55.171875 162.179688 55.214844 162.160156 55.253906 C 162.152344 55.261719 162.144531 55.28125 162.144531 55.285156 C 162.136719 55.292969 162.136719 55.300781 162.132812 55.3125 C 162.09375 55.394531 162.050781 55.464844 162.003906 55.546875 C 161.984375 55.582031 161.964844 55.613281 161.945312 55.648438 C 161.9375 55.660156 161.925781 55.671875 161.917969 55.6875 C 161.917969 55.6875 161.917969 55.6875 161.917969 55.695312 C 161.910156 55.699219 161.886719 55.734375 161.859375 55.753906 C 161.859375 55.753906 161.859375 55.753906 161.851562 55.761719 C 161.851562 55.761719 161.851562 55.761719 161.84375 55.761719 C 161.839844 55.761719 161.832031 55.765625 161.824219 55.765625 C 161.8125 55.765625 161.804688 55.765625 161.792969 55.765625 C 161.777344 55.761719 161.765625 55.761719 161.75 55.753906 C 161.75 55.753906 161.746094 55.753906 161.746094 55.753906 C 161.738281 55.746094 161.726562 55.746094 161.726562 55.742188 C 161.710938 55.734375 161.691406 55.71875 161.679688 55.714844 C 161.683594 55.71875 161.691406 55.71875 161.691406 55.726562 C 161.691406 55.726562 161.683594 55.71875 161.679688 55.714844 C 161.679688 55.714844 161.679688 55.714844 161.671875 55.714844 C 161.664062 55.707031 161.671875 55.714844 161.671875 55.707031 C 161.660156 55.699219 161.644531 55.6875 161.644531 55.6875 C 161.632812 55.679688 161.625 55.667969 161.617188 55.660156 C 161.617188 55.660156 161.617188 55.660156 161.613281 55.652344 C 161.613281 55.652344 161.617188 55.660156 161.613281 55.660156 C 161.613281 55.660156 161.605469 55.652344 161.605469 55.648438 C 161.585938 55.625 161.589844 55.625 161.597656 55.640625 C 161.585938 55.621094 161.558594 55.582031 161.558594 55.574219 C 161.550781 55.554688 161.546875 55.539062 161.539062 55.519531 C 161.53125 55.5 161.53125 55.480469 161.523438 55.460938 C 161.523438 55.453125 161.523438 55.445312 161.523438 55.445312 C 161.519531 55.386719 161.519531 55.332031 161.511719 55.273438 C 161.503906 55.144531 161.511719 55.019531 161.511719 54.894531 C 161.511719 54.8125 161.523438 54.738281 161.523438 54.660156 C 161.523438 54.660156 161.53125 54.660156 161.53125 54.660156 C 161.550781 54.660156 161.578125 54.660156 161.597656 54.664062 C 161.605469 54.664062 161.597656 54.664062 161.605469 54.664062 C 161.730469 54.679688 161.839844 54.707031 161.945312 54.746094 Z M 161.613281 55.640625 C 161.617188 55.648438 161.617188 55.648438 161.617188 55.652344 C 161.617188 55.652344 161.617188 55.652344 161.613281 55.648438 C 161.617188 55.648438 161.613281 55.648438 161.613281 55.640625 Z M 161.691406 55.71875 C 161.691406 55.714844 161.683594 55.714844 161.691406 55.71875 C 161.683594 55.714844 161.683594 55.714844 161.683594 55.714844 C 161.679688 55.707031 161.679688 55.707031 161.691406 55.71875 Z M 169.414062 60.371094 C 169.421875 60.378906 169.421875 60.378906 169.429688 60.386719 C 169.410156 60.386719 169.335938 60.347656 169.414062 60.371094 Z M 169.433594 60.386719 C 169.433594 60.386719 169.433594 60.394531 169.433594 60.386719 C 169.441406 60.394531 169.441406 60.398438 169.441406 60.398438 C 169.441406 60.398438 169.433594 60.394531 169.433594 60.386719 C 169.429688 60.386719 169.433594 60.394531 169.433594 60.386719 Z M 170.15625 63.277344 C 170.203125 63.117188 170.203125 62.9375 170.210938 62.769531 C 170.214844 62.542969 170.222656 62.316406 170.222656 62.09375 C 170.222656 61.675781 170.210938 61.261719 170.183594 60.839844 C 170.164062 60.5 170.148438 60.121094 169.867188 59.886719 C 169.707031 59.753906 169.496094 59.679688 169.289062 59.679688 C 168.636719 59.671875 168.335938 60.273438 168.339844 60.855469 C 168.339844 60.859375 168.335938 60.867188 168.335938 60.875 C 168.269531 61.640625 168.1875 62.507812 168.527344 63.230469 C 168.683594 63.558594 168.976562 63.804688 169.34375 63.835938 C 169.722656 63.871094 170.054688 63.644531 170.15625 63.277344 Z M 169.542969 62.777344 C 169.535156 62.882812 169.542969 62.996094 169.515625 63.101562 C 169.496094 63.167969 169.480469 63.167969 169.429688 63.167969 C 169.261719 63.175781 169.15625 63.003906 169.09375 62.847656 C 168.875 62.242188 168.949219 61.542969 169 60.90625 C 169 60.894531 169.007812 60.878906 169.007812 60.867188 C 169 60.6875 169.023438 60.546875 169.101562 60.417969 C 169.109375 60.414062 169.128906 60.394531 169.136719 60.386719 C 169.148438 60.378906 169.15625 60.371094 169.167969 60.367188 C 169.175781 60.359375 169.175781 60.359375 169.175781 60.359375 C 169.183594 60.359375 169.1875 60.359375 169.203125 60.351562 C 169.214844 60.347656 169.222656 60.347656 169.234375 60.347656 C 169.261719 60.347656 169.289062 60.347656 169.316406 60.347656 C 169.320312 60.347656 169.328125 60.347656 169.335938 60.351562 C 169.363281 60.359375 169.394531 60.367188 169.421875 60.378906 C 169.421875 60.378906 169.441406 60.394531 169.441406 60.394531 C 169.441406 60.394531 169.441406 60.398438 169.441406 60.398438 C 169.457031 60.398438 169.476562 60.441406 169.449219 60.414062 C 169.460938 60.433594 169.476562 60.453125 169.480469 60.472656 C 169.523438 60.59375 169.515625 60.726562 169.523438 60.855469 C 169.554688 61.488281 169.5625 62.136719 169.542969 62.777344 Z M 169.414062 60.371094 Z M 187.191406 63.5625 C 187.457031 63.957031 187.777344 64.359375 188.203125 64.578125 C 188.464844 64.699219 188.746094 64.75 189.011719 64.625 C 189.199219 64.53125 189.332031 64.371094 189.40625 64.175781 C 189.476562 63.992188 189.503906 63.777344 189.4375 63.582031 C 189.398438 63.464844 189.324219 63.355469 189.265625 63.25 C 189.265625 63.25 189.257812 63.238281 189.257812 63.238281 C 189.285156 63.210938 189.3125 63.183594 189.316406 63.175781 C 189.691406 62.855469 189.945312 62.457031 190.023438 61.96875 C 190.097656 61.507812 190.039062 60.980469 189.671875 60.660156 C 189.25 60.300781 188.636719 60.371094 188.335938 60.847656 C 188.269531 60.945312 188.246094 61.066406 188.203125 61.179688 C 188.183594 61.167969 188.15625 61.160156 188.152344 61.152344 C 187.882812 61 187.628906 60.832031 187.3125 60.8125 C 186.816406 60.78125 186.390625 61.226562 186.371094 61.707031 C 186.355469 61.980469 186.484375 62.234375 186.597656 62.476562 C 186.757812 62.84375 186.957031 63.214844 187.191406 63.5625 Z M 187.183594 61.488281 C 187.195312 61.480469 187.195312 61.480469 187.203125 61.472656 C 187.203125 61.472656 187.203125 61.472656 187.222656 61.472656 C 187.230469 61.472656 187.230469 61.472656 187.238281 61.472656 C 187.25 61.472656 187.265625 61.472656 187.277344 61.472656 C 187.382812 61.488281 187.46875 61.535156 187.5625 61.585938 C 187.785156 61.714844 188.011719 61.886719 188.277344 61.867188 C 188.570312 61.847656 188.738281 61.632812 188.824219 61.375 C 188.851562 61.308594 188.859375 61.234375 188.90625 61.179688 C 188.925781 61.152344 188.957031 61.128906 188.984375 61.105469 C 188.992188 61.101562 189.050781 61.085938 189.023438 61.085938 C 189.125 61.066406 189.210938 61.132812 189.265625 61.207031 C 189.332031 61.292969 189.371094 61.441406 189.378906 61.566406 C 189.390625 61.886719 189.285156 62.25 189.078125 62.488281 C 188.910156 62.683594 188.664062 62.796875 188.585938 63.054688 C 188.511719 63.304688 188.644531 63.5625 188.785156 63.765625 C 188.792969 63.769531 188.792969 63.777344 188.796875 63.789062 C 188.804688 63.796875 188.804688 63.796875 188.804688 63.804688 C 188.804688 63.816406 188.804688 63.832031 188.804688 63.84375 C 188.796875 63.871094 188.792969 63.898438 188.785156 63.925781 C 188.777344 63.929688 188.765625 63.972656 188.757812 63.984375 C 188.765625 63.972656 188.730469 64.015625 188.730469 64.015625 C 188.746094 64.003906 188.710938 64.023438 188.699219 64.03125 C 188.664062 64.042969 188.605469 64.039062 188.53125 64.003906 C 187.992188 63.730469 187.617188 63.0625 187.332031 62.503906 C 187.265625 62.375 187.203125 62.253906 187.152344 62.128906 C 187.128906 62.089844 187.117188 62.046875 187.097656 62.007812 C 187.089844 61.996094 187.082031 61.980469 187.078125 61.96875 C 187.042969 61.886719 187.011719 61.808594 187.015625 61.722656 C 187.03125 61.609375 187.097656 61.535156 187.183594 61.488281 Z M 207.292969 75.171875 C 206.398438 75.359375 206.074219 76.257812 205.933594 77.066406 C 205.746094 78.148438 206.113281 79.308594 206.511719 80.304688 C 206.699219 80.75 207.101562 81.140625 207.605469 80.851562 C 208.132812 80.550781 208.0625 79.972656 208.027344 79.457031 C 208 78.917969 208.265625 78.449219 208.492188 77.976562 C 208.695312 77.554688 208.859375 77.132812 208.875 76.667969 C 208.914062 75.757812 208.261719 74.972656 207.292969 75.171875 Z M 207.6875 78.136719 C 207.5 78.535156 207.355469 78.964844 207.367188 79.417969 C 207.375 79.636719 207.460938 79.910156 207.386719 80.125 C 207.3125 80.339844 207.226562 80.296875 207.160156 80.125 C 206.867188 79.390625 206.613281 78.609375 206.558594 77.816406 C 206.527344 77.273438 206.640625 76.632812 206.933594 76.171875 C 207.234375 75.691406 208 75.671875 208.175781 76.257812 C 208.367188 76.925781 207.953125 77.554688 207.6875 78.136719 Z M 207.6875 78.136719 " fill-opacity="1" fill-rule="nonzero"/></g></svg>